<svg width="1400" height="771" viewBox="0 0 1400 771" fill="none" xmlns="http://www.w3.org/2000/svg">
<path d="M0 11V108C0 114.075 4.92488 119 11 119H90.9165C94.5555 119 97.9589 117.2 100.008 114.193L114.487 92.9368C116.536 89.9294 119.94 88.1297 123.578 88.1297H1263.14C1265.95 88.1297 1268.66 89.2081 1270.7 91.1431L1296.93 115.987C1298.97 117.922 1301.68 119 1304.49 119H1389C1395.08 119 1400 114.075 1400 108V11C1400 4.92487 1395.08 0 1389 0H11C4.92487 0 0 4.92487 0 11Z" fill="#E0E0E0"/>
<path d="M1400 548V451C1400 444.925 1395.08 440 1389 440H1309.08C1305.44 440 1302.04 441.8 1299.99 444.807L1285.51 466.063C1283.46 469.071 1280.06 470.87 1276.42 470.87H136.865C134.051 470.87 131.344 469.792 129.3 467.857L103.069 443.013C101.026 441.078 98.3191 440 95.5051 440H11C4.92493 440 0 444.925 0 451V548C0 554.075 4.92493 559 11 559H1389C1395.08 559 1400 554.075 1400 548Z" fill="#E0E0E0"/>
<rect y="471" width="1400" height="300" rx="15.675" fill="#E0E0E0"/>
</svg>
