<svg width="1920" height="615" viewBox="0 0 1920 615" fill="none" xmlns="http://www.w3.org/2000/svg">
<rect x="-18" y="167" width="2000" height="448" fill="#E0E0E0"/>
<path d="M0 177V11C0 4.92487 4.92489 0 11 0H316.388C320.277 0 323.877 2.05347 325.856 5.40094L348.308 43.3689C350.288 46.7164 353.888 48.7699 357.777 48.7699H1733.47C1736.55 48.7699 1739.5 47.4756 1741.58 45.2025L1779.74 3.56741C1781.83 1.29427 1784.77 0 1787.85 0H1909C1915.08 0 1920 4.92487 1920 11V177C1920 183.075 1915.08 188 1909 188H11C4.92487 188 0 183.075 0 177Z" fill="#E0E0E0"/>
</svg>
