<svg width="285" height="285" viewBox="0 0 285 285" fill="none" xmlns="http://www.w3.org/2000/svg">
<path d="M143.869 0.0117188C191.356 0.613076 233.224 24.5193 258.569 60.8179C261.737 65.3558 265.151 69.7347 269.129 73.582L270.479 74.8867C270.695 75.0964 270.996 75.1966 271.295 75.1602L283.184 73.7139C284.119 73.6002 284.678 74.7251 284.023 75.4023L275.697 84.0107C275.488 84.2275 275.387 84.5278 275.424 84.8271L276.87 96.7158C276.905 96.9997 276.876 97.2965 276.965 97.5681C281.573 111.556 284.067 126.504 284.067 142.034L284.056 143.869C283.873 158.269 281.546 172.152 277.382 185.215C275.74 190.362 274.359 195.602 273.706 200.965L273.424 203.289C273.387 203.588 273.488 203.889 273.697 204.105L282.023 212.715C282.678 213.392 282.119 214.516 281.184 214.402L269.295 212.956C268.996 212.92 268.695 213.02 268.479 213.229L259.869 221.556C259.718 221.701 259.546 221.831 259.428 222.004C233.856 259.471 190.819 284.067 142.034 284.067L140.198 284.056C92.183 283.448 49.9095 259.014 24.6563 222.034C24.5296 221.848 24.3433 221.712 24.1816 221.556L15.5723 213.229C15.3555 213.02 15.0552 212.92 14.7559 212.956L2.86719 214.402C1.93217 214.516 1.37289 213.392 2.02734 212.715L10.3535 204.105C10.5631 203.889 10.6634 203.588 10.627 203.289L10.334 200.882C9.6828 195.532 8.30554 190.304 6.67017 185.168C2.5151 172.119 0.19386 158.252 0.0117188 143.869L0 142.034C2.791e-05 125.442 2.84727 109.514 8.07655 94.7118C8.18761 94.3974 8.14139 94.0468 8.18164 93.7158L9.62793 81.8271C9.66435 81.5278 9.56413 81.2275 9.35449 81.0107L1.02832 72.4023C0.373448 71.7252 0.933098 70.6003 1.86816 70.7139L13.7568 72.1602C14.0562 72.1966 14.3565 72.0964 14.5732 71.8867L23.1826 63.5615C23.5037 63.251 23.9632 63.061 24.213 62.6907C49.7317 24.8713 92.9779 0 142.034 0L143.869 0.0117188ZM142.034 2.15234C96.6392 2.15234 56.2962 23.7773 30.7409 57.2864C26.5517 62.7795 24.2578 69.4315 23.4238 76.2891C23.3874 76.5884 23.4877 76.8887 23.6973 77.1055L32.0234 85.7148C32.6779 86.3921 32.1186 87.516 31.1836 87.4023L19.2949 85.9561C18.9956 85.9196 18.6953 86.0199 18.4785 86.2295C13.3693 91.1703 9.31324 97.1647 7.38487 104.006C3.97638 116.097 2.15237 128.853 2.15234 142.034C2.15239 159.021 5.18134 175.3 10.7266 190.361C10.7553 190.439 10.8085 190.504 10.8682 190.562L19.4775 198.887C19.6943 199.096 19.9946 199.197 20.2939 199.16L32.1826 197.714C33.1177 197.6 33.6773 198.725 33.0225 199.402L24.6963 208.011C24.4866 208.228 24.3864 208.528 24.4229 208.827C25.3017 216.054 27.7652 223.058 32.2827 228.767C57.9026 261.143 97.5418 281.916 142.034 281.916C186.501 281.916 226.119 261.166 251.74 228.823C256.274 223.099 258.746 216.075 259.628 208.827C259.664 208.528 259.564 208.228 259.354 208.011L251.028 199.402C250.373 198.725 250.933 197.6 251.868 197.714L263.757 199.16C264.056 199.197 264.356 199.096 264.573 198.887L273.183 190.562C273.257 190.49 273.323 190.408 273.358 190.312C278.892 175.264 281.916 159.002 281.916 142.034C281.916 130.066 280.412 118.45 277.584 107.362C275.803 100.378 271.755 94.2403 266.573 89.2295C266.356 89.0199 266.056 88.9196 265.757 88.9561L253.868 90.4023C252.933 90.5159 252.374 89.3921 253.028 88.7148L261.354 80.1055C261.564 79.8887 261.664 79.5884 261.628 79.2891L260.182 67.4004C260.16 67.2241 260.134 67.0434 260.039 66.8936C235.2 27.9679 191.633 2.15248 142.034 2.15234Z" fill="#D9D9D9"/>
</svg>
