<svg width="11001" height="149" viewBox="0 0 11001 149" fill="none" xmlns="http://www.w3.org/2000/svg">
<path d="M10781.5 5.70305C10786.2 -1.90097 10797.2 -1.90104 10801.9 5.70305L10885.7 141.596C10889.4 147.638 10898.1 147.984 10902.3 142.258L10999 10.1943L11000.6 11.3759L10903.9 143.439C10898.8 150.311 10888.4 149.896 10884 142.644L10800.2 6.75285C10796.3 0.41615 10787.1 0.416135 10783.2 6.75285L10700.2 141.369C10695.5 148.973 10684.5 148.973 10679.8 141.369L10596.8 6.75285C10592.9 0.416119 10583.7 0.416119 10579.8 6.75285L10497.4 140.452C10492.5 148.288 10481 147.992 10476.6 139.917L10404 7.22551C10400.4 0.683792 10391.2 0.221153 10387 6.37199L10293.6 142.651C10288.7 149.81 10278 149.552 10273.5 142.163L10190 6.75285C10186.1 0.416139 10176.9 0.416149 10173 6.75285L10090 141.369C10085.3 148.973 10074.2 148.973 10069.6 141.369L9986.58 6.75285C9982.68 0.416135 9973.46 0.416135 9969.56 6.75285L9886.58 141.369C9881.89 148.973 9870.84 148.973 9866.15 141.369L9783.17 6.75285C9779.27 0.416135 9770.05 0.416135 9766.15 6.75285L9682.64 142.227C9678.1 149.598 9667.48 149.878 9662.56 142.757L9651.02 126.078L9650.98 126.105L9573.45 14.0536C9572.3 12.3992 9570.78 11.2213 9569.1 10.5195C9565.01 8.89212 9560.03 10.053 9557.22 14.0214L9522.59 62.8534L9466.08 142.989C9461.12 150.026 9450.58 149.7 9446.06 142.37L9362.46 6.75285C9358.56 0.416134 9349.34 0.416134 9345.44 6.75285L9262.46 141.369C9257.78 148.973 9246.72 148.973 9242.03 141.369L9159.06 6.75285C9155.15 0.416134 9145.94 0.416134 9142.03 6.75285L9059.05 141.369C9054.37 148.973 9043.31 148.973 9038.62 141.369L8955.65 6.75285C8951.74 0.416148 8942.53 0.416139 8938.62 6.75285L8855.16 142.163C8850.6 149.552 8839.95 149.81 8835.04 142.651L8741.62 6.37199C8737.41 0.221153 8728.18 0.683792 8724.6 7.22551L8651.99 139.917C8647.57 147.992 8636.07 148.288 8631.24 140.452L8548.83 6.75285C8544.93 0.416119 8535.71 0.416119 8531.81 6.75285L8448.79 141.44C8444.11 149.025 8433.09 149.049 8428.38 141.484L8345.25 7.88273C8341.51 1.87088 8332.88 1.54499 8328.69 7.25773L8228.96 143.447C8226.28 147.108 8222.07 148.701 8218.06 148.295C8214.5 147.96 8211.08 146.062 8208.98 142.645L8164.62 70.6786L8127.96 11.3105L8128 11.2812L8125.21 6.75383C8121.31 0.41673 8112.09 0.416715 8108.19 6.75383L8025.21 141.37C8020.52 148.974 8009.47 148.974 8004.78 141.37L7921.81 6.75383C7917.9 0.416699 7908.69 0.416699 7904.78 6.75383L7822.37 140.453C7817.54 148.289 7806.05 147.993 7801.63 139.918L7729.01 7.22648C7725.43 0.684369 7716.2 0.221738 7711.99 6.37297L7618.57 142.652C7613.66 149.811 7603.01 149.553 7598.46 142.164L7514.99 6.75383C7511.08 0.416719 7501.87 0.416728 7497.96 6.75383L7414.99 141.37C7410.3 148.974 7399.25 148.974 7394.56 141.37L7311.58 6.75383C7307.68 0.416715 7298.46 0.416715 7294.56 6.75383L7211.58 141.37C7206.89 148.974 7195.84 148.974 7191.15 141.37L7108.17 6.75383C7104.27 0.416715 7095.05 0.416715 7091.15 6.75383L7007.56 142.371C7003.04 149.701 6992.5 150.027 6987.53 142.99L6931.03 62.8544L6896.39 14.0224C6893.58 10.0549 6888.6 8.89417 6884.52 10.5195C6882.84 11.2211 6881.31 12.3989 6880.17 14.0546L6802.63 126.106L6802.59 126.079L6791.05 142.758C6786.13 149.879 6775.51 149.599 6770.97 142.228L6687.46 6.75383C6683.56 0.416715 6674.34 0.416715 6670.44 6.75383L6587.46 141.37C6582.78 148.974 6571.72 148.974 6567.03 141.37L6484.06 6.75383C6480.15 0.416715 6470.94 0.416715 6467.03 6.75383L6384.05 141.37C6379.37 148.974 6368.31 148.974 6363.62 141.37L6280.65 6.75383C6276.74 0.416728 6267.53 0.416719 6263.62 6.75383L6180.16 142.164C6175.6 149.553 6164.95 149.811 6160.04 142.652L6066.62 6.37297C6062.41 0.221738 6053.18 0.684369 6049.6 7.22648L5976.99 139.918C5972.57 147.993 5961.07 148.289 5956.24 140.453L5873.83 6.75383C5869.93 0.416699 5860.71 0.416699 5856.81 6.75383L5773.83 141.37C5769.14 148.974 5758.09 148.974 5753.4 141.37L5670.43 6.75383C5666.52 0.416715 5657.31 0.41673 5653.4 6.75383L5569.64 142.645C5565.17 149.897 5554.78 150.312 5549.74 143.44L5453 11.3769L5453.08 11.3173L5449.26 6.09953C5445.06 0.373252 5436.4 0.719066 5432.68 6.76164L5348.92 142.654C5344.23 150.258 5333.17 150.258 5328.49 142.654L5245.51 8.03801C5241.6 1.70113 5232.39 1.70117 5228.48 8.03801L5145.51 142.654C5140.82 150.258 5129.77 150.258 5125.08 142.654L5042.67 8.95402C5038.64 2.4239 5029.07 2.67118 5025.38 9.40031L4952.76 142.092C4948.47 149.942 4937.4 150.497 4932.34 143.116L4838.92 6.83683C4834.83 0.870924 4825.95 1.08584 4822.16 7.24308L4738.69 142.654C4734 150.258 4722.95 150.258 4718.26 142.654L4635.29 8.03801C4631.38 1.70111 4622.17 1.70112 4618.26 8.03801L4535.29 142.654C4530.6 150.258 4519.54 150.258 4514.85 142.654L4431.88 8.03801C4427.97 1.70112 4418.76 1.70112 4414.85 8.03801L4331.88 142.654C4327.19 150.258 4316.13 150.258 4311.45 142.654L4227.94 7.17863C4224.16 1.03641 4215.31 0.803601 4211.2 6.7382L4122.25 135.376C4120.83 137.429 4118.92 138.871 4116.83 139.702C4111.89 141.739 4105.82 140.355 4102.42 135.528L4067.91 86.5917L4026.99 28.8993L4027.15 28.788L4011.45 6.52141C4007.31 0.656757 3998.53 0.92819 3994.76 7.03703L3911.17 142.654C3906.48 150.258 3895.42 150.258 3890.74 142.654L3807.76 8.03801C3803.85 1.70112 3794.64 1.70112 3790.74 8.03801L3707.76 142.654C3703.07 150.258 3692.02 150.258 3687.33 142.654L3604.35 8.03801C3600.45 1.70112 3591.23 1.70111 3587.33 8.03801L3504.35 142.654C3499.66 150.258 3488.61 150.258 3483.92 142.654L3400.46 7.24308C3396.66 1.08584 3387.78 0.870924 3383.69 6.83683L3290.27 143.116C3285.21 150.497 3274.15 149.942 3269.85 142.092L3197.23 9.40031C3193.55 2.67118 3183.97 2.4239 3179.95 8.95402L3097.54 142.654C3092.85 150.258 3081.79 150.258 3077.1 142.654L2994.08 7.96574C2990.19 1.64492 2981.01 1.62537 2977.08 7.92961L2893.95 141.531C2889.46 148.745 2879.1 149.137 2874.08 142.281L2871.04 138.134L2871 138.163L2774.26 6.09953C2772.04 3.07178 2768.57 1.74084 2765.25 2.05266C2762.32 2.3525 2759.51 3.9296 2757.77 6.74601L2713.95 77.6972L2673.92 142.654C2669.23 150.258 2658.17 150.258 2653.49 142.654L2570.51 8.03801C2566.6 1.70091 2557.39 1.70094 2553.48 8.03801L2470.51 142.654C2465.82 150.258 2454.77 150.258 2450.08 142.654L2367.67 8.95402C2363.64 2.42367 2354.06 2.67094 2350.38 9.40031L2277.76 142.092C2273.47 149.941 2262.4 150.497 2257.34 143.116L2163.92 6.83683C2159.83 0.870704 2150.95 1.08562 2147.16 7.24308L2063.69 142.654C2059 150.258 2047.95 150.258 2043.26 142.654L1960.29 8.03801C1956.38 1.70088 1947.17 1.70089 1943.26 8.03801L1860.29 142.654C1855.6 150.258 1844.54 150.258 1839.85 142.654L1756.88 8.03801C1752.97 1.70089 1743.76 1.7009 1739.85 8.03801L1656.88 142.654C1652.19 150.258 1641.13 150.258 1636.45 142.654L1552.85 7.03703C1549.09 0.927969 1540.3 0.656539 1536.17 6.52141L1520.47 28.788L1520.62 28.8993L1479.71 86.5917L1445.2 135.528C1441.79 140.354 1435.73 141.739 1430.79 139.702C1428.69 138.871 1426.79 137.429 1425.37 135.376L1336.41 6.7382C1332.31 0.803381 1323.46 1.03619 1319.67 7.17863L1236.17 142.654C1231.48 150.258 1220.42 150.258 1215.74 142.654L1132.76 8.03801C1128.85 1.7009 1119.64 1.70089 1115.74 8.03801L1032.76 142.654C1028.07 150.258 1017.02 150.258 1012.33 142.654L929.353 8.03801C925.446 1.70089 916.233 1.70088 912.327 8.03801L829.352 142.654C824.664 150.258 813.608 150.258 808.921 142.654L725.455 7.24308C721.66 1.08562 712.784 0.870704 708.694 6.83683L615.274 143.116C610.214 150.497 599.146 149.941 594.85 142.092L522.231 9.40031C518.548 2.67094 508.972 2.42367 504.946 8.95402L422.535 142.654C417.848 150.258 406.792 150.258 402.104 142.654L319.129 8.03801C315.223 1.70094 306.01 1.70091 302.104 8.03801L219.128 142.654C214.44 150.258 203.385 150.258 198.697 142.654L114.935 6.76164C111.21 0.718847 102.551 0.373038 98.3555 6.09953L1.61328 138.163L0 136.981L96.7412 4.91789C101.775 -1.95423 112.168 -1.53895 116.638 5.71281L200.399 141.604C204.306 147.941 213.52 147.941 217.426 141.604L300.401 6.9882C305.089 -0.616203 316.145 -0.616206 320.832 6.9882L403.808 141.604C407.714 147.941 416.927 147.941 420.833 141.604L503.244 7.90519C508.075 0.0684713 519.566 0.365014 523.985 8.44035L596.604 141.132C600.185 147.673 609.408 148.136 613.625 141.985L707.045 5.70598C711.953 -1.45344 722.603 -1.19489 727.157 6.19426L810.623 141.604C814.529 147.941 823.742 147.941 827.648 141.604L910.624 6.9882C915.311 -0.616241 926.367 -0.616045 931.055 6.9882L1014.03 141.604C1017.94 147.941 1027.15 147.941 1031.06 141.604L1114.03 6.9882C1118.72 -0.616286 1129.78 -0.616201 1134.46 6.9882L1217.44 141.604C1221.34 147.941 1230.56 147.941 1234.46 141.604L1317.97 6.1298C1322.51 -1.24121 1333.13 -1.52104 1338.05 5.60051L1349.59 22.2792L1349.63 22.2519L1427.17 134.304C1428.32 135.963 1429.84 137.143 1431.53 137.844C1435.61 139.461 1440.58 138.299 1443.39 134.336L1478.03 85.5038L1534.53 5.36808C1539.5 -1.66959 1550.04 -1.34339 1554.56 5.98723L1638.15 141.604C1642.05 147.941 1651.27 147.941 1655.17 141.604L1738.15 6.9882C1742.84 -0.616201 1753.89 -0.616286 1758.58 6.9882L1841.56 141.604C1845.46 147.941 1854.68 147.941 1858.58 141.604L1941.56 6.9882C1946.25 -0.616045 1957.3 -0.616241 1961.99 6.9882L2044.96 141.604C2048.87 147.941 2058.08 147.941 2061.99 141.604L2145.46 6.19426C2150.01 -1.19489 2160.66 -1.45344 2165.57 5.70598L2258.99 141.985C2263.2 148.136 2272.43 147.673 2276.01 141.132L2348.63 8.44035C2353.05 0.365014 2364.54 0.0684713 2369.37 7.90519L2451.78 141.604C2455.69 147.941 2464.9 147.941 2468.81 141.604L2551.78 6.9882C2556.47 -0.616206 2567.52 -0.616203 2572.21 6.9882L2655.19 141.604C2659.09 147.941 2668.31 147.941 2672.21 141.604L2675 137.076L2674.96 137.047L2711.95 77.1405L2755.98 5.71281C2758.08 2.29777 2761.5 0.398101 2765.05 0.0624207C2769.07 -0.345756 2773.28 1.24765 2775.96 4.91008L2875.69 141.1C2879.88 146.812 2888.51 146.486 2892.25 140.475L2975.38 6.87297C2980.09 -0.692357 2991.11 -0.668425 2995.79 6.91691L3078.81 141.604C3082.71 147.941 3091.93 147.941 3095.83 141.604L3178.24 7.90519C3183.07 0.0687061 3194.57 0.36525 3198.99 8.44035L3271.6 141.132C3275.18 147.673 3284.41 148.136 3288.62 141.985L3382.04 5.70598C3386.95 -1.45322 3397.6 -1.19466 3402.16 6.19426L3485.62 141.604C3489.53 147.941 3498.74 147.941 3502.65 141.604L3585.62 6.9882C3590.31 -0.616012 3601.37 -0.615817 3606.05 6.9882L3689.03 141.604C3692.94 147.941 3702.15 147.941 3706.06 141.604L3789.03 6.9882C3793.72 -0.616057 3804.78 -0.615972 3809.46 6.9882L3892.44 141.604C3896.34 147.941 3905.56 147.941 3909.46 141.604L3993.06 5.98723C3997.58 -1.34317 4008.12 -1.66937 4013.08 5.36808L4069.59 85.5038L4104.22 134.336C4107.03 138.304 4112.01 139.465 4116.1 137.838C4117.78 137.136 4119.3 135.958 4120.45 134.304L4197.98 22.2519L4198.02 22.2792L4209.56 5.60051C4214.48 -1.52082 4225.1 -1.24098 4229.64 6.1298L4313.15 141.604C4317.05 147.941 4326.27 147.941 4330.17 141.604L4413.15 6.9882C4417.84 -0.615972 4428.89 -0.616057 4433.58 6.9882L4516.56 141.604C4520.46 147.941 4529.68 147.941 4533.58 141.604L4616.56 6.9882C4621.25 -0.615817 4632.3 -0.616012 4636.99 6.9882L4719.96 141.604C4723.87 147.941 4733.08 147.941 4736.99 141.604L4820.46 6.19426C4825.01 -1.19466 4835.66 -1.45322 4840.57 5.70598L4933.99 141.985C4938.2 148.136 4947.43 147.673 4951.01 141.132L5023.63 8.44035C5028.05 0.36525 5039.54 0.0687061 5044.37 7.90519L5126.78 141.604C5130.69 147.941 5139.9 147.941 5143.81 141.604L5226.78 6.9882C5231.47 -0.615977 5242.52 -0.615974 5247.21 6.9882L5330.19 141.604C5334.09 147.941 5343.31 147.941 5347.21 141.604L5430.98 5.71281C5435.45 -1.53873 5445.84 -1.95401 5450.87 4.91789L5547.61 136.981L5547.53 137.04L5551.36 142.259C5555.55 147.985 5564.21 147.639 5567.93 141.597L5651.7 5.70402C5656.38 -1.90046 5667.44 -1.90039 5672.13 5.70402L5755.1 140.32C5759.01 146.657 5768.22 146.657 5772.13 140.32L5855.1 5.70402C5859.79 -1.90043 5870.85 -1.90026 5875.54 5.70402L5957.95 139.404C5961.97 145.934 5971.55 145.687 5975.23 138.958L6047.85 6.26652C6052.15 -1.58403 6063.21 -2.13938 6068.27 5.24211L6161.69 141.521C6165.78 147.487 6174.66 147.272 6178.46 141.115L6261.92 5.70402C6266.61 -1.90037 6277.66 -1.90043 6282.35 5.70402L6365.33 140.32C6369.23 146.657 6378.45 146.657 6382.35 140.32L6465.33 5.70402C6470.02 -1.90044 6481.07 -1.9003 6485.76 5.70402L6568.74 140.32C6572.64 146.657 6581.85 146.657 6585.76 140.32L6668.74 5.70402C6673.42 -1.90042 6684.48 -1.90044 6689.17 5.70402L6772.67 141.18C6776.46 147.322 6785.31 147.554 6789.41 141.62L6878.37 12.9823C6879.79 10.9288 6881.69 9.48648 6883.79 8.65519C6888.73 6.61816 6894.79 8.00339 6898.2 12.83L6932.71 61.7665L6973.62 119.459L6973.47 119.57L6989.17 141.837C6993.3 147.701 7002.09 147.43 7005.85 141.321L7089.45 5.70402C7094.13 -1.90044 7105.19 -1.90042 7109.88 5.70402L7192.85 140.32C7196.76 146.657 7205.97 146.657 7209.88 140.32L7292.85 5.70402C7297.54 -1.9003 7308.6 -1.90044 7313.29 5.70402L7396.26 140.32C7400.17 146.657 7409.38 146.657 7413.29 140.32L7496.26 5.70402C7500.95 -1.90043 7512.01 -1.90037 7516.69 5.70402L7600.16 141.115C7603.95 147.272 7612.83 147.487 7616.92 141.521L7710.34 5.24211C7715.4 -2.13938 7726.47 -1.58403 7730.76 6.26652L7803.38 138.958C7807.07 145.687 7816.64 145.934 7820.67 139.404L7903.08 5.70402C7907.77 -1.90026 7918.82 -1.90043 7923.51 5.70402L8006.48 140.32C8010.39 146.657 8019.6 146.657 8023.51 140.32L8106.49 5.70402C8111.17 -1.90039 8122.23 -1.90046 8126.92 5.70402L8166.62 70.121L8210.77 141.611C8212.51 144.429 8215.32 146.006 8218.25 146.305C8221.58 146.614 8225.04 145.284 8227.26 142.259L8324 10.1952L8324.04 10.2245L8327.08 6.07609C8332.1 -0.77944 8342.46 -0.388333 8346.95 6.82609L8430.08 140.428C8434.01 146.732 8443.19 146.712 8447.08 140.392L8530.1 5.70305C8534.79 -1.90101 8545.85 -1.90084 8550.54 5.70305L8632.95 139.403C8636.97 145.933 8646.55 145.686 8650.23 138.957L8722.85 6.26555C8727.15 -1.58461 8738.21 -2.13996 8743.27 5.24113L8836.69 141.52C8840.78 147.486 8849.66 147.271 8853.46 141.114L8936.92 5.70305C8941.61 -1.90095 8952.66 -1.90101 8957.35 5.70305L9040.33 140.319C9044.23 146.656 9053.45 146.656 9057.35 140.319L9140.33 5.70305C9145.02 -1.90102 9156.07 -1.90088 9160.76 5.70305L9243.74 140.319C9247.64 146.656 9256.85 146.656 9260.76 140.319L9343.74 5.70305C9348.42 -1.901 9359.48 -1.90102 9364.17 5.70305L9447.76 141.32C9451.53 147.429 9460.31 147.7 9464.45 141.836L9480.15 119.569L9479.99 119.458L9520.91 61.7655L9555.42 12.829C9558.82 8.00258 9564.89 6.61809 9569.83 8.65519C9571.92 9.48645 9573.83 10.928 9575.25 12.9814L9664.2 141.619C9668.31 147.553 9677.16 147.321 9680.94 141.179L9764.45 5.70305C9769.13 -1.90102 9780.19 -1.901 9784.88 5.70305L9867.85 140.319C9871.76 146.656 9880.97 146.656 9884.88 140.319L9967.85 5.70305C9972.54 -1.90088 9983.6 -1.90102 9988.29 5.70305L10071.3 140.319C10075.2 146.656 10084.4 146.656 10088.3 140.319L10171.3 5.70305C10175.9 -1.90101 10187 -1.90095 10191.7 5.70305L10275.2 141.114C10279 147.271 10287.8 147.486 10291.9 141.52L10385.3 5.24113C10390.4 -2.13996 10401.5 -1.58461 10405.8 6.26555L10478.4 138.957C10482.1 145.686 10491.6 145.933 10495.7 139.403L10578.1 5.70305C10582.8 -1.90084 10593.8 -1.90101 10598.5 5.70305L10681.5 140.319C10685.4 146.656 10694.6 146.656 10698.5 140.319L10781.5 5.70305Z" fill="url(#paint0_radial_888_18)"/>
<defs>
<radialGradient id="paint0_radial_888_18" cx="0" cy="0" r="1" gradientTransform="matrix(-7287.87 149.477 1335.59 483.693 9015.04 0.00771164)" gradientUnits="userSpaceOnUse">
<stop stop-color="#CFA9FF"/>
<stop offset="0.533654" stop-color="#D5B5FF"/>
</radialGradient>
</defs>
</svg>
