<svg width="5548" height="150" viewBox="0 0 5548 150" fill="none" xmlns="http://www.w3.org/2000/svg">
<path d="M5430.98 5.70361C5435.45 -1.54812 5445.84 -1.9634 5450.87 4.90869L5547.61 136.972L5546 138.154L5449.26 6.09033C5445.06 0.363863 5436.4 0.709673 5432.68 6.75244L5348.92 142.645C5344.23 150.25 5333.17 150.249 5328.49 142.645L5245.51 8.02881C5241.6 1.69173 5232.39 1.69177 5228.48 8.02881L5145.51 142.645C5140.82 150.249 5129.77 150.249 5125.08 142.645L5042.67 8.94482C5038.64 2.4145 5029.06 2.66177 5025.38 9.39111L4952.76 142.083C4948.47 149.933 4937.4 150.488 4932.34 143.107L4838.92 6.82764C4834.83 0.86153 4825.95 1.07644 4822.16 7.23389L4738.69 142.645C4734.01 150.249 4722.95 150.249 4718.26 142.645L4635.29 8.02881C4631.38 1.69171 4622.17 1.69172 4618.26 8.02881L4535.29 142.645C4530.6 150.249 4519.54 150.249 4514.85 142.645L4431.88 8.02881C4427.97 1.69172 4418.76 1.69172 4414.85 8.02881L4331.88 142.645C4327.19 150.249 4316.13 150.249 4311.45 142.645L4227.85 7.02783C4224.09 0.918795 4215.3 0.647364 4211.17 6.51221L4195.47 28.7788L4195.62 28.8901L4154.71 86.5825L4120.2 135.519C4116.79 140.346 4110.73 141.731 4105.79 139.694C4103.69 138.863 4101.79 137.42 4100.37 135.367L4011.41 6.729C4007.31 0.794207 3998.46 1.02701 3994.67 7.16943L3911.17 142.645C3906.48 150.249 3895.42 150.249 3890.74 142.645L3807.76 8.02881C3803.85 1.69172 3794.64 1.69172 3790.74 8.02881L3707.76 142.645C3703.07 150.249 3692.02 150.249 3687.33 142.645L3604.35 8.02881C3600.45 1.69172 3591.23 1.69171 3587.33 8.02881L3504.35 142.645C3499.66 150.249 3488.61 150.249 3483.92 142.645L3400.46 7.23389C3396.66 1.07644 3387.78 0.86153 3383.69 6.82764L3290.27 143.107C3285.21 150.488 3274.15 149.933 3269.85 142.083L3197.23 9.39111C3193.55 2.66177 3183.97 2.4145 3179.95 8.94482L3097.54 142.645C3092.85 150.249 3081.79 150.249 3077.1 142.645L2994.13 8.02881C2990.22 1.69177 2981.01 1.69173 2977.1 8.02881L2894.13 142.645C2889.44 150.249 2878.38 150.25 2873.7 142.645L2848.96 102.51L2789.83 6.87549C2786.08 0.805426 2777.35 0.507449 2773.2 6.30713L2674.14 144.461C2669.15 151.427 2658.67 151.062 2654.18 143.766L2570.51 8.02881C2566.6 1.69173 2557.39 1.69176 2553.48 8.02881L2470.51 142.645C2465.82 150.249 2454.77 150.249 2450.08 142.645L2367.67 8.94482C2363.64 2.41449 2354.06 2.66176 2350.38 9.39111L2277.76 142.083C2273.47 149.933 2262.4 150.488 2257.34 143.107L2163.92 6.82764C2159.83 0.861523 2150.95 1.07644 2147.16 7.23389L2063.69 142.645C2059 150.249 2047.95 150.249 2043.26 142.645L1960.29 8.02881C1956.38 1.6917 1947.17 1.69171 1943.26 8.02881L1860.29 142.645C1855.6 150.249 1844.54 150.249 1839.85 142.645L1756.88 8.02881C1752.97 1.69171 1743.76 1.69172 1739.85 8.02881L1656.88 142.645C1652.19 150.249 1641.13 150.249 1636.45 142.645L1552.85 7.02783C1549.09 0.918788 1540.3 0.647358 1536.17 6.51221L1520.47 28.7788L1520.62 28.8901L1479.71 86.5825L1445.2 135.519C1441.79 140.345 1435.73 141.731 1430.79 139.694C1428.69 138.863 1426.79 137.42 1425.37 135.367L1336.41 6.729C1332.31 0.7942 1323.46 1.02701 1319.67 7.16943L1236.17 142.645C1231.48 150.249 1220.42 150.249 1215.74 142.645L1132.76 8.02881C1128.85 1.69172 1119.64 1.69171 1115.74 8.02881L1032.76 142.645C1028.07 150.249 1017.02 150.249 1012.33 142.645L929.353 8.02881C925.446 1.69171 916.233 1.6917 912.327 8.02881L829.352 142.645C824.664 150.249 813.608 150.249 808.921 142.645L725.455 7.23389C721.66 1.07644 712.784 0.861523 708.694 6.82764L615.274 143.107C610.214 150.488 599.146 149.933 594.85 142.083L522.231 9.39111C518.548 2.66176 508.972 2.41449 504.946 8.94482L422.535 142.645C417.848 150.249 406.792 150.249 402.104 142.645L319.129 8.02881C315.223 1.69176 306.01 1.69173 302.104 8.02881L219.128 142.645C214.44 150.249 203.385 150.249 198.697 142.645L114.935 6.75244C111.21 0.709666 102.551 0.363856 98.3555 6.09033L1.61328 138.154L0 136.972L96.7412 4.90869C101.775 -1.96341 112.168 -1.54813 116.638 5.70361L200.399 141.595C204.306 147.932 213.52 147.932 217.426 141.595L300.401 6.979C305.089 -0.625383 316.145 -0.625386 320.832 6.979L403.808 141.595C407.714 147.932 416.927 147.932 420.833 141.595L503.244 7.896C508.075 0.0592917 519.566 0.355834 523.985 8.43115L596.604 141.123C600.185 147.664 609.408 148.127 613.625 141.976L707.045 5.69678C711.953 -1.46262 722.603 -1.20407 727.157 6.18506L810.623 141.595C814.529 147.932 823.742 147.932 827.648 141.595L910.624 6.979C915.311 -0.625421 926.367 -0.625225 931.055 6.979L1014.03 141.595C1017.94 147.932 1027.15 147.932 1031.06 141.595L1114.03 6.979C1118.72 -0.625466 1129.78 -0.625381 1134.46 6.979L1217.44 141.595C1221.34 147.932 1230.56 147.932 1234.46 141.595L1317.97 6.12061C1322.51 -1.25039 1333.13 -1.53022 1338.05 5.59131L1349.59 22.27L1349.63 22.2427L1427.17 134.294C1428.31 135.95 1429.84 137.128 1431.52 137.83C1435.6 139.455 1440.58 138.294 1443.39 134.327L1478.03 85.4946L1534.53 5.35889C1539.5 -1.67877 1550.04 -1.35257 1554.56 5.97803L1638.15 141.595C1642.05 147.932 1651.27 147.932 1655.17 141.595L1738.15 6.979C1742.84 -0.625381 1753.89 -0.625466 1758.58 6.979L1841.56 141.595C1845.46 147.932 1854.68 147.932 1858.58 141.595L1941.56 6.979C1946.25 -0.625225 1957.3 -0.625421 1961.99 6.979L2044.96 141.595C2048.87 147.932 2058.08 147.932 2061.99 141.595L2145.46 6.18506C2150.01 -1.20407 2160.66 -1.46262 2165.57 5.69678L2258.99 141.976C2263.2 148.127 2272.43 147.664 2276.01 141.123L2348.63 8.43115C2353.05 0.355834 2364.54 0.0592917 2369.37 7.896L2451.78 141.595C2455.69 147.932 2464.9 147.932 2468.81 141.595L2551.78 6.979C2556.47 -0.625386 2567.52 -0.625383 2572.21 6.979L2655.88 142.717C2659.63 148.797 2668.36 149.101 2672.52 143.296L2676.35 137.958L2675 136.972L2771.74 4.90869C2776.78 -1.9634 2787.17 -1.54812 2791.64 5.70361L2850.62 101.397L2872.66 137.037L2872.61 137.067L2875.4 141.595C2879.31 147.932 2888.52 147.932 2892.43 141.595L2975.4 6.979C2980.09 -0.625376 2991.14 -0.625379 2995.83 6.979L3078.81 141.595C3082.71 147.932 3091.93 147.932 3095.83 141.595L3178.24 7.896C3183.07 0.0592987 3194.57 0.355841 3198.99 8.43115L3271.6 141.123C3275.18 147.665 3284.41 148.127 3288.62 141.976L3382.04 5.69678C3386.95 -1.46261 3397.6 -1.20406 3402.16 6.18506L3485.62 141.595C3489.53 147.932 3498.74 147.932 3502.65 141.595L3585.62 6.979C3590.31 -0.625414 3601.37 -0.625219 3606.05 6.979L3689.03 141.595C3692.94 147.932 3702.15 147.932 3706.06 141.595L3789.03 6.979C3793.72 -0.625459 3804.78 -0.625374 3809.46 6.979L3892.44 141.595C3896.34 147.932 3905.56 147.932 3909.46 141.595L3992.97 6.12061C3997.51 -1.25038 4008.13 -1.53021 4013.05 5.59131L4024.59 22.27L4024.63 22.2427L4102.17 134.294C4103.31 135.95 4104.84 137.128 4106.52 137.83C4110.6 139.455 4115.58 138.294 4118.39 134.327L4153.03 85.4946L4209.53 5.35889C4214.5 -1.67876 4225.04 -1.35257 4229.56 5.97803L4313.15 141.595C4317.05 147.932 4326.27 147.932 4330.17 141.595L4413.15 6.979C4417.84 -0.625374 4428.89 -0.625459 4433.58 6.979L4516.56 141.595C4520.46 147.932 4529.68 147.932 4533.58 141.595L4616.56 6.979C4621.25 -0.625219 4632.3 -0.625414 4636.99 6.979L4719.96 141.595C4723.87 147.932 4733.08 147.932 4736.99 141.595L4820.46 6.18506C4825.01 -1.20406 4835.66 -1.46261 4840.57 5.69678L4933.99 141.976C4938.2 148.127 4947.43 147.665 4951.01 141.123L5023.63 8.43115C5028.05 0.355841 5039.54 0.0592987 5044.37 7.896L5126.78 141.595C5130.69 147.932 5139.9 147.932 5143.81 141.595L5226.78 6.979C5231.47 -0.625379 5242.52 -0.625376 5247.21 6.979L5330.19 141.595C5334.09 147.932 5343.31 147.932 5347.21 141.595L5430.98 5.70361Z" fill="#FF00BF"/>
</svg>
