<svg width="5548" height="149" viewBox="0 0 5548 149" fill="none" xmlns="http://www.w3.org/2000/svg">
<path d="M2765.05 0.0622559C2769.07 -0.345921 2773.28 1.24749 2775.96 4.90991L2875.69 141.099C2879.88 146.812 2888.51 146.486 2892.25 140.474L2975.38 6.8728C2980.09 -0.692515 2991.11 -0.668583 2995.79 6.91675L3078.81 141.604C3082.71 147.941 3091.93 147.941 3095.83 141.604L3178.24 7.90503C3183.07 0.0685486 3194.57 0.365093 3198.99 8.44019L3271.6 141.132C3275.18 147.673 3284.41 148.136 3288.62 141.985L3382.04 5.70581C3386.95 -1.45338 3397.6 -1.19482 3402.16 6.19409L3485.62 141.604C3489.53 147.941 3498.74 147.941 3502.65 141.604L3585.62 6.98804C3590.31 -0.61617 3601.37 -0.615974 3606.05 6.98804L3689.03 141.604C3692.94 147.941 3702.15 147.941 3706.06 141.604L3789.03 6.98804C3793.72 -0.616214 3804.78 -0.61613 3809.46 6.98804L3892.44 141.604C3896.34 147.941 3905.56 147.941 3909.46 141.604L3993.06 5.98706C3997.58 -1.34333 4008.12 -1.66953 4013.08 5.36792L4069.59 85.5037L4104.22 134.336C4107.03 138.299 4112 139.461 4116.08 137.844C4117.77 137.143 4119.3 135.963 4120.45 134.303L4197.98 22.2517L4198.02 22.2791L4209.56 5.60034C4214.48 -1.52098 4225.1 -1.24114 4229.64 6.12964L4313.15 141.604C4317.05 147.941 4326.27 147.941 4330.17 141.604L4413.15 6.98804C4417.84 -0.61613 4428.89 -0.616214 4433.58 6.98804L4516.56 141.604C4520.46 147.941 4529.68 147.941 4533.58 141.604L4616.56 6.98804C4621.25 -0.615974 4632.3 -0.61617 4636.99 6.98804L4719.96 141.604C4723.87 147.941 4733.08 147.941 4736.99 141.604L4820.46 6.19409C4825.01 -1.19482 4835.66 -1.45338 4840.57 5.70581L4933.99 141.985C4938.2 148.136 4947.43 147.673 4951.01 141.132L5023.63 8.44019C5028.05 0.365093 5039.54 0.0685486 5044.37 7.90503L5126.78 141.604C5130.69 147.941 5139.9 147.941 5143.81 141.604L5226.78 6.98804C5231.47 -0.616135 5242.52 -0.616132 5247.21 6.98804L5330.19 141.604C5334.09 147.941 5343.31 147.941 5347.21 141.604L5430.98 5.71265C5435.45 -1.53889 5445.84 -1.95417 5450.87 4.91772L5547.61 136.981L5546 138.163L5449.26 6.09937C5445.06 0.373094 5436.4 0.718908 5432.68 6.76147L5348.92 142.654C5344.23 150.258 5333.17 150.258 5328.49 142.654L5245.51 8.03784C5241.6 1.70098 5232.39 1.70101 5228.48 8.03784L5145.51 142.654C5140.82 150.258 5129.77 150.258 5125.08 142.654L5042.67 8.95386C5038.64 2.42375 5029.07 2.67102 5025.38 9.40015L4952.76 142.092C4948.47 149.942 4937.4 150.497 4932.34 143.116L4838.92 6.83667C4834.83 0.870766 4825.95 1.08568 4822.16 7.24292L4738.69 142.654C4734 150.258 4722.95 150.258 4718.26 142.654L4635.29 8.03784C4631.38 1.70096 4622.17 1.70096 4618.26 8.03784L4535.29 142.654C4530.6 150.258 4519.54 150.258 4514.85 142.654L4431.88 8.03784C4427.97 1.70096 4418.76 1.70097 4414.85 8.03784L4331.88 142.654C4327.19 150.258 4316.13 150.258 4311.45 142.654L4227.94 7.17847C4224.16 1.03625 4215.31 0.803443 4211.2 6.73804L4122.25 135.376C4120.83 137.429 4118.92 138.871 4116.83 139.702C4111.89 141.739 4105.82 140.355 4102.42 135.528L4067.91 86.5916L4026.99 28.8992L4027.15 28.7878L4011.45 6.52124C4007.31 0.656599 3998.53 0.928032 3994.76 7.03687L3911.17 142.654C3906.48 150.258 3895.42 150.258 3890.74 142.654L3807.76 8.03784C3803.85 1.70097 3794.64 1.70096 3790.74 8.03784L3707.76 142.654C3703.07 150.258 3692.02 150.258 3687.33 142.654L3604.35 8.03784C3600.45 1.70096 3591.23 1.70096 3587.33 8.03784L3504.35 142.654C3499.66 150.258 3488.61 150.258 3483.92 142.654L3400.46 7.24292C3396.66 1.08568 3387.78 0.870766 3383.69 6.83667L3290.27 143.116C3285.21 150.497 3274.15 149.942 3269.85 142.092L3197.23 9.40015C3193.55 2.67102 3183.97 2.42375 3179.95 8.95386L3097.54 142.654C3092.85 150.258 3081.79 150.258 3077.1 142.654L2994.08 7.96558C2990.19 1.64476 2981.01 1.62521 2977.08 7.92944L2893.95 141.531C2889.46 148.745 2879.1 149.137 2874.08 142.281L2871.04 138.134L2871 138.163L2774.26 6.09937C2772.04 3.07162 2768.57 1.74067 2765.25 2.05249C2762.32 2.35233 2759.51 3.92943 2757.77 6.74585L2713.95 77.697L2673.92 142.654C2669.23 150.258 2658.17 150.258 2653.49 142.654L2570.51 8.03784C2566.6 1.70074 2557.39 1.70077 2553.48 8.03784L2470.51 142.654C2465.82 150.258 2454.77 150.258 2450.08 142.654L2367.67 8.95386C2363.64 2.4235 2354.06 2.67077 2350.38 9.40015L2277.76 142.092C2273.47 149.941 2262.4 150.497 2257.34 143.116L2163.92 6.83667C2159.83 0.870539 2150.95 1.08545 2147.16 7.24292L2063.69 142.654C2059 150.258 2047.95 150.258 2043.26 142.654L1960.29 8.03784C1956.38 1.70072 1947.17 1.70073 1943.26 8.03784L1860.29 142.654C1855.6 150.258 1844.54 150.258 1839.85 142.654L1756.88 8.03784C1752.97 1.70072 1743.76 1.70073 1739.85 8.03784L1656.88 142.654C1652.19 150.258 1641.13 150.258 1636.45 142.654L1552.85 7.03687C1549.09 0.927804 1540.3 0.656374 1536.17 6.52124L1520.47 28.7878L1520.62 28.8992L1479.71 86.5916L1445.2 135.528C1441.79 140.354 1435.73 141.739 1430.79 139.702C1428.69 138.871 1426.79 137.429 1425.37 135.376L1336.41 6.73804C1332.31 0.803216 1323.46 1.03602 1319.67 7.17847L1236.17 142.654C1231.48 150.258 1220.42 150.258 1215.74 142.654L1132.76 8.03784C1128.85 1.70073 1119.64 1.70072 1115.74 8.03784L1032.76 142.654C1028.07 150.258 1017.02 150.258 1012.33 142.654L929.353 8.03784C925.446 1.70073 916.233 1.70072 912.327 8.03784L829.352 142.654C824.664 150.258 813.608 150.258 808.921 142.654L725.455 7.24292C721.66 1.08545 712.784 0.870539 708.694 6.83667L615.274 143.116C610.214 150.497 599.146 149.941 594.85 142.092L522.231 9.40015C518.548 2.67077 508.972 2.4235 504.946 8.95386L422.535 142.654C417.848 150.258 406.792 150.258 402.104 142.654L319.129 8.03784C315.223 1.70077 306.01 1.70074 302.104 8.03784L219.128 142.654C214.44 150.258 203.385 150.258 198.697 142.654L114.935 6.76147C111.21 0.718682 102.551 0.372873 98.3555 6.09937L1.61328 138.163L0 136.981L96.7412 4.91772C101.775 -1.95439 112.168 -1.53912 116.638 5.71265L200.399 141.604C204.306 147.941 213.52 147.941 217.426 141.604L300.401 6.98804C305.089 -0.616368 316.145 -0.616371 320.832 6.98804L403.808 141.604C407.714 147.941 416.927 147.941 420.833 141.604L503.244 7.90503C508.075 0.0683064 519.566 0.364849 523.985 8.44019L596.604 141.132C600.185 147.673 609.408 148.136 613.625 141.985L707.045 5.70581C711.953 -1.4536 722.603 -1.19505 727.157 6.19409L810.623 141.604C814.529 147.941 823.742 147.941 827.648 141.604L910.624 6.98804C915.311 -0.616405 926.367 -0.61621 931.055 6.98804L1014.03 141.604C1017.94 147.941 1027.15 147.941 1031.06 141.604L1114.03 6.98804C1118.72 -0.61645 1129.78 -0.616366 1134.46 6.98804L1217.44 141.604C1221.34 147.941 1230.56 147.941 1234.46 141.604L1317.97 6.12964C1322.51 -1.24137 1333.13 -1.5212 1338.05 5.60034L1349.59 22.2791L1349.63 22.2517L1427.17 134.303C1428.32 135.963 1429.84 137.143 1431.53 137.844C1435.61 139.461 1440.58 138.299 1443.39 134.336L1478.03 85.5037L1534.53 5.36792C1539.5 -1.66975 1550.04 -1.34356 1554.56 5.98706L1638.15 141.604C1642.05 147.941 1651.27 147.941 1655.17 141.604L1738.15 6.98804C1742.84 -0.616366 1753.89 -0.61645 1758.58 6.98804L1841.56 141.604C1845.46 147.941 1854.68 147.941 1858.58 141.604L1941.56 6.98804C1946.25 -0.61621 1957.3 -0.616405 1961.99 6.98804L2044.96 141.604C2048.87 147.941 2058.08 147.941 2061.99 141.604L2145.46 6.19409C2150.01 -1.19505 2160.66 -1.4536 2165.57 5.70581L2258.99 141.985C2263.2 148.136 2272.43 147.673 2276.01 141.132L2348.63 8.44019C2353.05 0.364849 2364.54 0.0683064 2369.37 7.90503L2451.78 141.604C2455.69 147.941 2464.9 147.941 2468.81 141.604L2551.78 6.98804C2556.47 -0.616371 2567.52 -0.616368 2572.21 6.98804L2655.19 141.604C2659.09 147.941 2668.31 147.941 2672.21 141.604L2675 137.076L2674.96 137.047L2711.95 77.1404L2755.98 5.71265C2758.08 2.2976 2761.5 0.397932 2765.05 0.0622559Z" fill="url(#paint0_radial_847_10933)"/>
<defs>
<radialGradient id="paint0_radial_847_10933" cx="0" cy="0" r="1" gradientTransform="matrix(-3675.28 149.476 673.539 483.691 4546.29 0.00844404)" gradientUnits="userSpaceOnUse">
<stop stop-color="#CFA9FF"/>
<stop offset="0.533654" stop-color="#D5B5FF"/>
</radialGradient>
</defs>
</svg>
