<svg width="11001" height="149" viewBox="0 0 11001 149" fill="none" xmlns="http://www.w3.org/2000/svg">
<path d="M10781.5 5.70304C10786.2 -1.90097 10797.2 -1.90105 10801.9 5.70304L10885.7 141.596C10889.4 147.638 10898.1 147.984 10902.3 142.258L10999 10.1943L11000.6 11.3759L10903.9 143.439C10898.8 150.311 10888.4 149.896 10884 142.644L10800.2 6.75285C10796.3 0.416147 10787.1 0.416132 10783.2 6.75285L10700.2 141.369C10695.5 148.973 10684.5 148.973 10679.8 141.369L10596.8 6.75285C10592.9 0.416116 10583.7 0.416116 10579.8 6.75285L10497.4 140.452C10492.5 148.288 10481 147.992 10476.6 139.917L10404 7.2255C10400.4 0.683789 10391.2 0.22115 10387 6.37199L10293.6 142.651C10288.7 149.81 10278 149.552 10273.5 142.163L10190 6.75285C10186.1 0.416136 10176.9 0.416146 10173 6.75285L10090 141.369C10085.3 148.973 10074.2 148.973 10069.6 141.369L9986.58 6.75285C9982.68 0.416132 9973.46 0.416132 9969.56 6.75285L9886.58 141.369C9881.89 148.973 9870.84 148.973 9866.15 141.369L9783.17 6.75285C9779.27 0.416132 9770.05 0.416132 9766.15 6.75285L9682.64 142.227C9678.1 149.598 9667.48 149.878 9662.56 142.757L9651.02 126.078L9650.98 126.105L9573.45 14.0536C9572.3 12.3992 9570.78 11.2213 9569.1 10.5194C9565.01 8.89211 9560.03 10.053 9557.22 14.0214L9522.59 62.8534L9466.08 142.989C9461.12 150.027 9450.58 149.7 9446.06 142.37L9362.46 6.75285C9358.56 0.416131 9349.34 0.416131 9345.44 6.75285L9262.46 141.369C9257.78 148.973 9246.72 148.973 9242.03 141.369L9159.06 6.75285C9155.15 0.416131 9145.94 0.416131 9142.03 6.75285L9059.05 141.369C9054.37 148.973 9043.31 148.973 9038.62 141.369L8955.65 6.75285C8951.74 0.416145 8942.53 0.416136 8938.62 6.75285L8855.16 142.163C8850.6 149.552 8839.95 149.81 8835.04 142.651L8741.62 6.37199C8737.41 0.22115 8728.18 0.683789 8724.6 7.2255L8651.99 139.917C8647.57 147.992 8636.07 148.288 8631.24 140.452L8548.83 6.75285C8544.93 0.416116 8535.71 0.416116 8531.81 6.75285L8448.79 141.44C8444.11 149.026 8433.09 149.05 8428.38 141.484L8345.25 7.88273C8341.51 1.87088 8332.88 1.54499 8328.69 7.25773L8228.96 143.447C8226.28 147.11 8222.07 148.703 8218.05 148.295C8214.5 147.959 8211.08 146.059 8208.98 142.644L8164.95 71.2167L8127.96 11.3105L8128 11.2812L8125.21 6.75285C8121.31 0.416447 8112.09 0.416432 8108.19 6.75285L8025.21 141.369C8020.52 148.973 8009.47 148.973 8004.78 141.369L7921.81 6.75285C7917.9 0.416417 7908.69 0.416417 7904.78 6.75285L7822.37 140.452C7817.54 148.289 7806.05 147.992 7801.63 139.917L7729.01 7.2255C7725.43 0.684092 7716.2 0.221447 7711.99 6.37199L7618.57 142.651C7613.66 149.811 7603.01 149.552 7598.46 142.163L7514.99 6.75285C7511.08 0.416436 7501.87 0.416446 7497.96 6.75285L7414.99 141.369C7410.3 148.973 7399.25 148.973 7394.56 141.369L7311.58 6.75285C7307.68 0.416432 7298.46 0.416432 7294.56 6.75285L7211.58 141.369C7206.89 148.973 7195.84 148.973 7191.15 141.369L7108.17 6.75285C7104.27 0.416432 7095.05 0.416432 7091.15 6.75285L7007.56 142.37C7003.04 149.701 6992.5 150.027 6987.53 142.989L6931.03 62.8534L6896.39 14.0214C6893.58 10.0585 6888.61 8.89594 6884.53 10.5136C6882.84 11.2145 6881.32 12.394 6880.17 14.0536L6802.63 126.105L6802.59 126.078L6791.05 142.757C6786.13 149.878 6775.51 149.598 6770.97 142.227L6687.46 6.75285C6683.56 0.416432 6674.34 0.416432 6670.44 6.75285L6587.46 141.369C6582.78 148.973 6571.72 148.973 6567.03 141.369L6484.06 6.75285C6480.15 0.416432 6470.94 0.416432 6467.03 6.75285L6384.05 141.369C6379.37 148.973 6368.31 148.973 6363.62 141.369L6280.65 6.75285C6276.74 0.416446 6267.53 0.416436 6263.62 6.75285L6180.16 142.163C6175.6 149.552 6164.95 149.811 6160.04 142.651L6066.62 6.37199C6062.41 0.221447 6053.18 0.684092 6049.6 7.2255L5976.99 139.917C5972.57 147.992 5961.07 148.289 5956.24 140.452L5873.83 6.75285C5869.93 0.416417 5860.71 0.416417 5856.81 6.75285L5773.83 141.369C5769.14 148.973 5758.09 148.973 5753.4 141.369L5670.43 6.75285C5666.52 0.416432 5657.31 0.416447 5653.4 6.75285L5569.64 142.644C5565.17 149.896 5554.78 150.311 5549.74 143.439L5453 11.3759L5453.08 11.3163L5449.26 6.09953C5445.06 0.373382 5436.4 0.719199 5432.68 6.76164L5348.92 142.654C5344.23 150.258 5333.17 150.258 5328.49 142.654L5245.51 8.038C5241.6 1.70127 5232.39 1.70131 5228.48 8.038L5145.51 142.654C5140.82 150.258 5129.77 150.258 5125.08 142.654L5042.67 8.95402C5038.64 2.42405 5029.07 2.67132 5025.38 9.40031L4952.76 142.092C4948.47 149.942 4937.4 150.497 4932.34 143.116L4838.92 6.83683C4834.83 0.871058 4825.95 1.08598 4822.16 7.24308L4738.69 142.654C4734 150.258 4722.95 150.258 4718.26 142.654L4635.29 8.038C4631.38 1.70125 4622.17 1.70126 4618.26 8.038L4535.29 142.654C4530.6 150.258 4519.54 150.258 4514.85 142.654L4431.88 8.038C4427.97 1.70126 4418.76 1.70126 4414.85 8.038L4331.88 142.654C4327.19 150.258 4316.13 150.258 4311.45 142.654L4227.94 7.17863C4224.16 1.03654 4215.31 0.803734 4211.2 6.7382L4122.25 135.376C4120.83 137.429 4118.92 138.871 4116.83 139.702C4111.89 141.739 4105.82 140.355 4102.42 135.528L4067.91 86.5917L4026.99 28.8993L4027.15 28.788L4011.45 6.5214C4007.31 0.656889 3998.53 0.928324 3994.76 7.03703L3911.17 142.654C3906.48 150.258 3895.42 150.258 3890.74 142.654L3807.76 8.038C3803.85 1.70126 3794.64 1.70126 3790.74 8.038L3707.76 142.654C3703.07 150.258 3692.02 150.258 3687.33 142.654L3604.35 8.038C3600.45 1.70126 3591.23 1.70125 3587.33 8.038L3504.35 142.654C3499.66 150.258 3488.61 150.258 3483.92 142.654L3400.46 7.24308C3396.66 1.08598 3387.78 0.871058 3383.69 6.83683L3290.27 143.116C3285.21 150.497 3274.15 149.942 3269.85 142.092L3197.23 9.40031C3193.55 2.67132 3183.97 2.42405 3179.95 8.95402L3097.54 142.654C3092.85 150.258 3081.79 150.258 3077.1 142.654L2994.08 7.96574C2990.19 1.64506 2981.01 1.62551 2977.08 7.92961L2893.95 141.531C2889.46 148.745 2879.1 149.137 2874.08 142.281L2871.04 138.133L2871 138.162L2774.26 6.09855C2772.04 3.07098 2768.57 1.74083 2765.25 2.05265C2762.32 2.35249 2759.51 3.92966 2757.77 6.74601L2713.62 78.2362L2673.92 142.653C2669.23 150.258 2658.17 150.258 2653.49 142.653L2570.51 8.03703C2566.6 1.70031 2557.39 1.70035 2553.48 8.03703L2470.51 142.653C2465.82 150.258 2454.77 150.257 2450.08 142.653L2367.67 8.95304C2363.64 2.42309 2354.07 2.67036 2350.38 9.39933L2277.76 142.091C2273.47 149.941 2262.4 150.496 2257.34 143.115L2163.92 6.83586C2159.83 0.870098 2150.95 1.08502 2147.16 7.24211L2063.69 142.653C2059.01 150.257 2047.95 150.258 2043.26 142.653L1960.29 8.03703C1956.38 1.70029 1947.17 1.7003 1943.26 8.03703L1860.29 142.653C1855.6 150.258 1844.54 150.257 1839.85 142.653L1756.88 8.03703C1752.97 1.7003 1743.76 1.70031 1739.85 8.03703L1656.88 142.653C1652.19 150.258 1641.13 150.258 1636.45 142.653L1552.85 7.03605C1549.09 0.927365 1540.3 0.655929 1536.17 6.52043L1520.47 28.787L1520.62 28.8984L1479.71 86.5907L1445.2 135.527C1441.79 140.354 1435.73 141.739 1430.79 139.702C1428.69 138.871 1426.79 137.428 1425.37 135.375L1336.41 6.73722C1332.31 0.802774 1323.46 1.03558 1319.67 7.17765L1236.17 142.653C1231.48 150.258 1220.42 150.258 1215.74 142.653L1132.76 8.03703C1128.85 1.70031 1119.64 1.7003 1115.74 8.03703L1032.76 142.653C1028.07 150.257 1017.02 150.258 1012.33 142.653L929.353 8.03703C925.446 1.7003 916.233 1.70029 912.327 8.03703L829.352 142.653C824.664 150.258 813.608 150.257 808.921 142.653L725.455 7.24211C721.66 1.08502 712.784 0.870098 708.694 6.83586L615.274 143.115C610.214 150.496 599.146 149.941 594.85 142.091L522.231 9.39933C518.548 2.67036 508.972 2.42309 504.946 8.95304L422.535 142.653C417.848 150.257 406.792 150.258 402.104 142.653L319.129 8.03703C315.223 1.70035 306.01 1.70031 302.104 8.03703L219.128 142.653C214.44 150.258 203.385 150.258 198.697 142.653L114.935 6.76066C111.209 0.71824 102.551 0.372422 98.3555 6.09855L1.61328 138.162L0 136.98L96.7412 4.91691C101.775 -1.95484 112.168 -1.53956 116.638 5.71183L200.399 141.603C204.306 147.94 213.52 147.94 217.426 141.603L300.401 6.98722C305.089 -0.616794 316.145 -0.616797 320.832 6.98722L403.808 141.603C407.714 147.94 416.927 147.94 420.833 141.603L503.244 7.90421C508.075 0.0678905 519.566 0.364436 523.985 8.43937L596.604 141.131C600.185 147.673 609.408 148.135 613.625 141.984L707.045 5.705C711.953 -1.45404 722.603 -1.19549 727.157 6.19328L810.623 141.603C814.529 147.94 823.742 147.94 827.648 141.603L910.624 6.98722C915.311 -0.616832 926.367 -0.616637 931.055 6.98722L1014.03 141.603C1017.94 147.94 1027.15 147.94 1031.06 141.603L1114.03 6.98722C1118.72 -0.616877 1129.78 -0.616792 1134.46 6.98722L1217.44 141.603C1221.34 147.94 1230.56 147.94 1234.46 141.603L1317.97 6.12882C1322.51 -1.24181 1333.13 -1.52164 1338.05 5.59953L1349.59 22.2782L1349.63 22.2509L1427.17 134.303C1428.31 135.958 1429.84 137.136 1431.52 137.838C1435.6 139.463 1440.58 138.302 1443.39 134.335L1478.03 85.5028L1534.53 5.36711C1539.5 -1.6702 1550.04 -1.344 1554.56 5.98625L1638.15 141.603C1642.05 147.94 1651.27 147.94 1655.17 141.603L1738.15 6.98722C1742.84 -0.616792 1753.89 -0.616877 1758.58 6.98722L1841.56 141.603C1845.46 147.94 1854.68 147.94 1858.58 141.603L1941.56 6.98722C1946.25 -0.616637 1957.3 -0.616832 1961.99 6.98722L2044.96 141.603C2048.87 147.94 2058.08 147.94 2061.99 141.603L2145.46 6.19328C2150.01 -1.19549 2160.66 -1.45404 2165.57 5.705L2258.99 141.984C2263.2 148.135 2272.43 147.673 2276.01 141.131L2348.63 8.43937C2353.05 0.364436 2364.54 0.0678905 2369.37 7.90421L2451.78 141.603C2455.69 147.94 2464.9 147.94 2468.81 141.603L2551.78 6.98722C2556.47 -0.616797 2567.52 -0.616794 2572.21 6.98722L2655.19 141.603C2659.09 147.94 2668.31 147.94 2672.21 141.603L2675 137.076L2674.96 137.047L2711.62 77.6786L2755.98 5.71183C2758.08 2.29698 2761.5 0.398097 2765.05 0.0624177C2769.07 -0.34575 2773.28 1.24772 2775.96 4.91007L2875.69 141.1C2879.88 146.812 2888.51 146.486 2892.25 140.475L2975.38 6.87296C2980.09 -0.692219 2991.11 -0.668287 2995.79 6.91691L3078.81 141.604C3082.71 147.941 3091.93 147.941 3095.83 141.604L3178.24 7.90519C3183.07 0.0688486 3194.57 0.365394 3198.99 8.44035L3271.6 141.132C3275.18 147.673 3284.41 148.136 3288.62 141.985L3382.04 5.70597C3386.95 -1.45309 3397.6 -1.19453 3402.16 6.19425L3485.62 141.604C3489.53 147.941 3498.74 147.941 3502.65 141.604L3585.62 6.9882C3590.31 -0.615873 3601.37 -0.615678 3606.05 6.9882L3689.03 141.604C3692.94 147.941 3702.15 147.941 3706.06 141.604L3789.03 6.9882C3793.72 -0.615918 3804.78 -0.615833 3809.46 6.9882L3892.44 141.604C3896.34 147.941 3905.56 147.941 3909.46 141.604L3993.06 5.98722C3997.58 -1.34304 4008.12 -1.66924 4013.08 5.36808L4069.59 85.5038L4104.22 134.336C4107.03 138.304 4112.01 139.465 4116.1 137.838C4117.78 137.136 4119.3 135.958 4120.45 134.304L4197.98 22.2519L4198.02 22.2792L4209.56 5.6005C4214.48 -1.52068 4225.1 -1.24085 4229.64 6.1298L4313.15 141.604C4317.05 147.941 4326.27 147.941 4330.17 141.604L4413.15 6.9882C4417.84 -0.615833 4428.89 -0.615918 4433.58 6.9882L4516.56 141.604C4520.46 147.941 4529.68 147.941 4533.58 141.604L4616.56 6.9882C4621.25 -0.615678 4632.3 -0.615873 4636.99 6.9882L4719.96 141.604C4723.87 147.941 4733.08 147.941 4736.99 141.604L4820.46 6.19425C4825.01 -1.19453 4835.66 -1.45309 4840.57 5.70597L4933.99 141.985C4938.2 148.136 4947.43 147.673 4951.01 141.132L5023.63 8.44035C5028.05 0.365394 5039.54 0.0688486 5044.37 7.90519L5126.78 141.604C5130.69 147.941 5139.9 147.941 5143.81 141.604L5226.78 6.9882C5231.47 -0.615838 5242.52 -0.615835 5247.21 6.9882L5330.19 141.604C5334.09 147.941 5343.31 147.941 5347.21 141.604L5430.98 5.71281C5435.45 -1.5386 5445.84 -1.95388 5450.87 4.91789L5547.61 136.981L5547.53 137.04L5551.36 142.258C5555.55 147.984 5564.21 147.638 5567.93 141.596L5651.7 5.70304C5656.38 -1.90075 5667.44 -1.90067 5672.13 5.70304L5755.1 140.319C5759.01 146.656 5768.22 146.656 5772.13 140.319L5855.1 5.70304C5859.79 -1.90071 5870.85 -1.90055 5875.54 5.70304L5957.95 139.403C5961.97 145.933 5971.55 145.686 5975.23 138.957L6047.85 6.26554C6052.15 -1.58431 6063.21 -2.13967 6068.27 5.24113L6161.69 141.52C6165.78 147.486 6174.66 147.272 6178.46 141.114L6261.92 5.70304C6266.61 -1.90065 6277.66 -1.90071 6282.35 5.70304L6365.33 140.319C6369.23 146.656 6378.45 146.656 6382.35 140.319L6465.33 5.70304C6470.02 -1.90073 6481.07 -1.90058 6485.76 5.70304L6568.74 140.319C6572.64 146.656 6581.85 146.656 6585.76 140.319L6668.74 5.70304C6673.42 -1.9007 6684.48 -1.90072 6689.17 5.70304L6772.67 141.179C6776.46 147.321 6785.31 147.554 6789.41 141.619L6878.37 12.9814C6879.79 10.9281 6881.69 9.48641 6883.79 8.65519C6888.73 6.61818 6894.79 8.00278 6898.2 12.829L6932.71 61.7655L6973.62 119.458L6973.47 119.569L6989.17 141.836C6993.3 147.701 7002.09 147.429 7005.85 141.32L7089.45 5.70304C7094.13 -1.90072 7105.19 -1.9007 7109.88 5.70304L7192.85 140.319C7196.76 146.656 7205.97 146.656 7209.88 140.319L7292.85 5.70304C7297.54 -1.90058 7308.6 -1.90073 7313.29 5.70304L7396.26 140.319C7400.17 146.656 7409.38 146.656 7413.29 140.319L7496.26 5.70304C7500.95 -1.90071 7512 -1.90065 7516.69 5.70304L7600.16 141.114C7603.95 147.272 7612.83 147.486 7616.92 141.52L7710.34 5.24113C7715.4 -2.13967 7726.47 -1.58431 7730.76 6.26554L7803.38 138.957C7807.06 145.686 7816.64 145.933 7820.67 139.403L7903.08 5.70304C7907.77 -1.90055 7918.82 -1.90071 7923.51 5.70304L8006.48 140.319C8010.39 146.656 8019.6 146.656 8023.51 140.319L8106.49 5.70304C8111.17 -1.90067 8122.23 -1.90075 8126.92 5.70304L8166.95 70.6601L8210.77 141.611C8212.51 144.428 8215.32 146.005 8218.25 146.305C8221.57 146.616 8225.04 145.285 8227.26 142.258L8324 10.1943L8324.04 10.2236L8327.08 6.07609C8332.1 -0.779443 8342.46 -0.388336 8346.95 6.82609L8430.08 140.428C8434.01 146.732 8443.19 146.712 8447.08 140.392L8530.1 5.70304C8534.79 -1.90102 8545.85 -1.90085 8550.54 5.70304L8632.95 139.403C8636.97 145.933 8646.55 145.686 8650.23 138.957L8722.85 6.26554C8727.15 -1.58461 8738.21 -2.13996 8743.27 5.24113L8836.69 141.52C8840.78 147.486 8849.66 147.271 8853.46 141.114L8936.92 5.70304C8941.61 -1.90095 8952.66 -1.90101 8957.35 5.70304L9040.33 140.319C9044.23 146.656 9053.45 146.656 9057.35 140.319L9140.33 5.70304C9145.02 -1.90103 9156.07 -1.90088 9160.76 5.70304L9243.74 140.319C9247.64 146.656 9256.85 146.656 9260.76 140.319L9343.74 5.70304C9348.42 -1.901 9359.48 -1.90102 9364.17 5.70304L9447.76 141.32C9451.53 147.429 9460.31 147.7 9464.45 141.836L9480.15 119.569L9479.99 119.458L9520.91 61.7655L9555.42 12.829C9558.82 8.00258 9564.89 6.61808 9569.83 8.65519C9571.92 9.48644 9573.83 10.928 9575.25 12.9814L9664.2 141.619C9668.31 147.554 9677.16 147.321 9680.94 141.179L9764.45 5.70304C9769.13 -1.90102 9780.19 -1.901 9784.88 5.70304L9867.85 140.319C9871.76 146.656 9880.97 146.656 9884.88 140.319L9967.85 5.70304C9972.54 -1.90088 9983.6 -1.90103 9988.29 5.70304L10071.3 140.319C10075.2 146.656 10084.4 146.656 10088.3 140.319L10171.3 5.70304C10175.9 -1.90101 10187 -1.90095 10191.7 5.70304L10275.2 141.114C10279 147.271 10287.8 147.486 10291.9 141.52L10385.3 5.24113C10390.4 -2.13996 10401.5 -1.58461 10405.8 6.26554L10478.4 138.957C10482.1 145.686 10491.6 145.933 10495.7 139.403L10578.1 5.70304C10582.8 -1.90085 10593.8 -1.90101 10598.5 5.70304L10681.5 140.319C10685.4 146.656 10694.6 146.656 10698.5 140.319L10781.5 5.70304Z" fill="#FE01DE"/>
</svg>
