<svg width="60" height="61" viewBox="0 0 60 61" fill="none" xmlns="http://www.w3.org/2000/svg">
<path d="M20.0145 0.856336C21.6662 -0.757538 24.4455 0.0213026 25.0174 2.25868C25.5707 4.42351 28.4615 5.17494 30.4842 4.22548C32.1585 3.43957 34.0279 2.99989 35.9998 2.99989C39.4734 3.00006 42.6281 4.36314 44.9598 6.5829C46.1114 7.67904 47.9815 7.90656 49.119 6.79579C50.7707 5.18222 53.55 5.96184 54.1219 8.19911L59.0555 27.497C59.7234 30.1111 56.4979 34.4564 56.536 37.1542C56.5373 37.2494 56.5379 37.3448 56.5379 37.4403C56.5379 48.4858 47.5834 57.4401 36.5379 57.4403C34.0047 57.4403 30.431 60.449 27.9071 60.2323C27.7199 60.2162 27.5298 60.1824 27.3387 60.1288L8.16 54.7518C5.93636 54.1285 5.22131 51.3318 6.87289 49.7177C7.95251 48.6619 7.67191 46.845 6.52719 45.8602C3.75522 43.4761 1.99991 39.9429 1.99984 35.9999C1.99984 33.6437 2.62711 31.4345 3.72347 29.5292C4.73469 27.7719 4.1433 25.1117 2.19125 24.5643C-0.0321554 23.9408 -0.746493 21.1442 0.905115 19.5302L20.0145 0.856336ZM28.9998 20.9999C24.5816 20.9999 20.9998 24.5816 20.9998 28.9999C20.9999 31.6551 22.2946 34.0067 24.286 35.4618L22.659 37.1503C21.0731 38.7954 21.8356 41.5393 24.0428 42.1308L43.2381 47.2743C45.4451 47.8655 47.4771 45.8706 46.9266 43.6532L41.9774 23.7323C41.4088 21.4435 38.543 20.6753 36.9061 22.3729L35.285 24.0536C33.8201 22.1948 31.5502 20.9999 28.9998 20.9999ZM12.5721 27.4745C11.3821 27.141 10.0797 27.2056 9.08383 27.9374C6.60714 29.7573 4.99984 32.6907 4.99984 35.9999C4.9999 38.7399 6.10224 41.221 7.88754 43.0263C9.68644 44.8452 12.548 44.1697 14.3778 42.3817L14.8055 41.9628C16.006 40.7897 16.5379 39.1188 16.5379 37.4403C16.5379 36.5617 16.594 35.6962 16.7039 34.8475C17.109 31.7205 15.6083 28.3255 12.5721 27.4745ZM35.9998 5.99989C33.0006 5.99989 30.3099 7.32061 28.4774 9.412C27.5975 10.4163 27.462 11.8293 27.7928 13.1229C28.5654 16.1444 31.8399 17.7472 34.9491 17.5028C35.4732 17.4616 36.0032 17.4403 36.5379 17.4403C37.5689 17.4403 38.5819 17.0916 39.3192 16.371L40.5975 15.122C43.0251 12.749 43.6463 8.72106 40.6414 7.14149C39.2547 6.41256 37.6756 6 35.9998 5.99989Z" fill="#D9D9D9"/>
<circle cx="28.4998" cy="28.5" r="4.5" fill="#D9D9D9"/>
</svg>
