<svg width="65" height="50" viewBox="0 0 65 50" fill="none" xmlns="http://www.w3.org/2000/svg">
<path d="M53.5 0C59.8513 0 65 5.14873 65 11.5C65 17.8513 59.8513 23 53.5 23C53.3091 23 53.1192 22.9957 52.9307 22.9863C51.5925 22.9202 50.2333 23.4539 49.5635 24.6143L36.5479 47.1592C35.0082 49.8257 31.1587 49.8257 29.6191 47.1592L27.6416 43.7344C26.1805 41.2048 20.8428 41.8098 18.5332 43.5986C16.5893 45.1042 14.1495 46 11.5 46C5.14873 46 0 40.8513 0 34.5C0 28.1487 5.14873 23 11.5 23C13.0308 23 14.5759 21.1022 13.8105 19.7764L10.502 14.0459C8.96235 11.3792 10.8866 8.04591 13.9658 8.0459H40.3271C41.6372 8.04582 42.7618 7.17382 43.3867 6.02246C45.3334 2.43561 49.132 0 53.5 0ZM15.7295 11C13.8065 11.0001 12.604 13.0805 13.5635 14.7471L30.835 44.7451C31.7959 46.414 34.203 46.4156 35.166 44.748L45.999 25.9844C46.8965 24.4297 45.9121 22.683 44.4727 22.2334C42.5028 21.6186 41.4953 20.5262 41.0029 19.3936C40.4878 18.2082 40.478 16.8352 40.7871 15.6621C41.0532 14.6526 40.7024 13.5417 40.2959 12.8057C40.0724 12.4011 39.7673 11.986 39.375 11.6543C38.9888 11.3278 38.4153 11 37.6973 11H15.7295ZM37.4883 14C37.537 14.0539 37.6039 14.1364 37.6699 14.2559C37.7614 14.4215 37.8263 14.6004 37.8584 14.752C37.8817 14.8621 37.8797 14.9174 37.8799 14.9248L37.8086 15.2178C37.4427 16.8423 37.4672 18.7852 38.251 20.5889C39.0628 22.4567 40.6381 24.0509 43.1328 24.9463L33.002 42.4961L16.5947 14H37.4883ZM11 28C7.13401 28 4 31.134 4 35C4 38.866 7.13401 42 11 42C14.866 42 18 38.866 18 35C18 31.134 14.866 28 11 28ZM54.5 4C50.3579 4 47 7.35786 47 11.5C47 15.6421 50.3579 19 54.5 19C58.6421 19 62 15.6421 62 11.5C62 7.35786 58.6421 4 54.5 4Z" fill="#D9D9D9"/>
</svg>
