<svg width="58" height="55" viewBox="0 0 58 55" fill="none" xmlns="http://www.w3.org/2000/svg">
<circle cx="25" cy="35" r="5" fill="#D9D9D9"/>
<circle cx="54" cy="8" r="4" fill="#D9D9D9"/>
<path d="M50.7215 6.18912L21.7957 31.7956C21.3643 32.1775 21.344 32.844 21.7515 33.2515L26.7991 38.2991C27.1872 38.6872 27.8155 38.69 28.207 38.3054L55.3487 11.6399C55.7176 11.2775 55.7493 10.6936 55.4218 10.2933L52.1583 6.30464C51.799 5.8654 51.1465 5.81294 50.7215 6.18912Z" stroke="#D9D9D9" stroke-linecap="round"/>
<path d="M14.5 0C19.786 0 24.3613 3.03849 26.5771 7.46387C27.0373 8.38291 27.9722 9 29 9C40.598 9 50 18.402 50 30C50 41.598 40.598 51 29 51C24.2701 51 19.9061 49.4356 16.3955 46.7969C16.2342 46.6756 16 46.7982 16 47C16 51.4183 12.4183 55 8 55C3.58172 55 0 51.4183 0 47C0 42.5817 3.58172 39 8 39C8.84616 39 9.59252 38.0777 9.29883 37.2842C8.45906 35.015 8 32.5612 8 30C8 27.3781 6.7218 24.8396 4.88184 22.9717C2.48154 20.5351 1 17.1907 1 13.5C1 6.04416 7.04416 0 14.5 0ZM7.5 42C4.46243 42 2 44.4624 2 47.5C2 50.5376 4.46243 53 7.5 53C10.5376 53 13 50.5376 13 47.5C13 44.4624 10.5376 42 7.5 42ZM29.5 17C21.4919 17 15 23.4919 15 31.5C15 39.5081 21.4919 46 29.5 46C37.5081 46 44 39.5081 44 31.5C44 23.4919 37.5081 17 29.5 17ZM14 6C10.134 6 7 9.13401 7 13C7 16.866 10.134 20 14 20C17.866 20 21 16.866 21 13C21 9.13401 17.866 6 14 6Z" fill="#D9D9D9"/>
</svg>
