<svg width="69" height="76" viewBox="0 0 69 76" fill="none" xmlns="http://www.w3.org/2000/svg">
<path d="M29.8288 0C31.2095 1.22473e-05 32.4295 0.685732 33.1655 1.73414C53.005 2.01892 69 18.1468 69 38.0001L68.9993 38.2347C68.8738 57.9803 52.9268 73.9822 33.1655 74.2659C32.4295 75.3143 31.2095 76 29.8288 76C27.5807 76 25.7582 74.1824 25.7582 71.9404C25.7582 69.6984 27.5807 67.881 29.8288 67.881C31.3167 67.881 32.6178 68.6771 33.3278 69.8655C49.8975 69.5122 63.363 56.5829 64.5117 40.265H47.5391C46.3956 52.3239 36.2141 61.7583 23.823 61.7583L23.6689 61.7578C10.634 61.6755 0.083024 51.1531 0.000492038 38.1536L0 38C0 24.8786 10.6659 14.2417 23.823 14.2417L23.977 14.2421C36.3439 14.3202 46.475 23.7957 47.5514 35.8683H64.5209C63.4361 19.4876 49.9425 6.48873 33.3278 6.13452C32.6178 7.32285 31.3167 8.11903 29.8288 8.11904C27.5807 8.11904 25.7582 6.30159 25.7582 4.05958C25.7582 1.81756 27.5807 0 29.8288 0ZM23.823 18.6384C13.1008 18.6384 4.40866 27.3069 4.40866 38C4.40868 48.6931 13.1008 57.3616 23.823 57.3616C33.777 57.3616 41.9811 49.8909 43.1058 40.265H33.5189C32.5173 44.6463 28.5865 47.916 23.8898 47.916C18.4354 47.916 14.0136 43.5063 14.0136 38.0666C14.0136 32.6269 18.4353 28.2172 23.8898 28.2172C28.5865 28.2173 32.5173 31.4869 33.5189 35.8683H43.1206C42.0565 26.1782 33.8228 18.6384 23.823 18.6384Z" fill="#FE01DE"/>
</svg>
