<svg width="107" height="67" viewBox="0 0 107 67" fill="none" xmlns="http://www.w3.org/2000/svg">
<path d="M86.6504 0.370117C97.8469 0.370318 106.63 9.00927 106.63 20.082C106.63 26.8412 103.544 33.0213 98.043 39.6631C92.5377 46.3096 84.6528 53.3723 75.1182 61.9043V61.9053L70 66.502L64.8818 61.9053V61.9043L61.3848 58.7715C53.413 51.613 46.7741 45.4787 41.957 39.6631C36.4557 33.0213 33.3702 26.8412 33.3701 20.082C33.3701 9.00927 42.1531 0.370318 53.3496 0.370117C59.6774 0.370117 65.756 3.27857 69.7207 7.83691L70 8.1582L70.2793 7.83691C74.244 3.27857 80.3226 0.370117 86.6504 0.370117Z" stroke="white" stroke-width="0.74"/>
<path d="M53.6504 0.370117C64.8469 0.370318 73.6299 9.00927 73.6299 20.082C73.6298 26.8412 70.5443 33.0213 65.043 39.6631C59.5377 46.3096 51.6528 53.3723 42.1182 61.9043V61.9053L37 66.502L31.8818 61.9053V61.9043L28.3848 58.7715C20.413 51.613 13.7741 45.4787 8.95703 39.6631C3.45568 33.0213 0.370205 26.8412 0.370117 20.082C0.370117 9.00927 9.15305 0.370318 20.3496 0.370117C26.6774 0.370117 32.756 3.27857 36.7207 7.83691L37 8.1582L37.2793 7.83691C41.244 3.27857 47.3226 0.370117 53.6504 0.370117Z" stroke="white" stroke-width="0.74"/>
</svg>
