<svg width="140" height="34" viewBox="0 0 140 34" fill="none" xmlns="http://www.w3.org/2000/svg">
<path d="M69.8032 32.7009C89.0047 32.4684 106.355 30.4102 118.88 27.2763C125.145 25.7087 130.183 23.8763 133.639 21.8814C137.125 19.8692 138.872 17.7689 138.848 15.7076C138.823 13.6462 137.025 11.588 133.491 9.66066C129.988 7.75005 124.907 6.04015 118.606 4.62466C106.008 1.79495 88.6135 0.157307 69.412 0.389759C50.2108 0.622233 32.8615 2.68051 20.3364 5.8143C14.0709 7.38197 9.03223 9.21427 5.57641 11.2092C2.09061 13.2215 0.343593 15.3226 0.368547 17.384C0.393711 19.4452 2.19114 21.5028 5.72435 23.43C9.22746 25.3406 14.309 27.0504 20.6106 28.466C33.2079 31.2956 50.6019 32.9333 69.8032 32.7009Z" stroke="white" stroke-width="0.736539"/>
</svg>
