<svg width="1400" height="119" viewBox="0 0 1400 119" fill="none" xmlns="http://www.w3.org/2000/svg">
<path d="M0 11V108C0 114.075 4.92488 119 11 119H90.9165C94.5555 119 97.9589 117.2 100.008 114.193L114.487 92.9368C116.536 89.9294 119.94 88.1297 123.578 88.1297H1263.14C1265.95 88.1297 1268.66 89.2081 1270.7 91.1431L1296.93 115.987C1298.97 117.922 1301.68 119 1304.49 119H1389C1395.08 119 1400 114.075 1400 108V11C1400 4.92487 1395.08 0 1389 0H11C4.92487 0 0 4.92487 0 11Z" fill="#E0E0E0"/>
</svg>
