<svg width="326" height="98" viewBox="0 0 326 98" fill="none" xmlns="http://www.w3.org/2000/svg">
<g filter="url(#filter0_f_532_5408)">
<path d="M261.938 78.9701H256.25V81.2406H261.542V82.9662H256.25V85.7543H262.139V87.4799H254.121V77.2377H261.938V78.9701Z" fill="white" fill-opacity="0.5"/>
<path d="M261.938 78.9701H256.25V81.2406H261.542V82.9662H256.25V85.7543H262.139V87.4799H254.121V77.2377H261.938V78.9701Z" stroke="white"/>
<path d="M248.037 77.0631C249.326 77.0631 250.374 77.4331 251.18 78.1735C251.659 78.6113 252.019 79.2405 252.259 80.0602L250.151 80.5494C250.027 80.0186 249.766 79.599 249.368 79.2916C248.975 78.9842 248.495 78.8307 247.93 78.8307C247.148 78.8307 246.513 79.1033 246.024 79.6481C245.54 80.193 245.298 81.0754 245.298 82.2955C245.298 83.5901 245.537 84.5125 246.017 85.0621C246.496 85.6117 247.12 85.8873 247.887 85.8873C248.452 85.8873 248.939 85.7122 249.347 85.3629C249.754 85.0136 250.046 84.464 250.224 83.7145L252.287 84.3502C251.971 85.4678 251.443 86.2995 250.705 86.8444C249.972 87.3845 249.039 87.6539 247.908 87.6539C246.508 87.6539 245.357 87.1911 244.456 86.2643C243.555 85.3328 243.105 84.0612 243.104 82.4498C243.104 80.7452 243.558 79.4219 244.464 78.4811C245.37 77.5359 246.561 77.0632 248.037 77.0631Z" fill="white" fill-opacity="0.5"/>
<path d="M248.037 77.0631C249.326 77.0631 250.374 77.4331 251.18 78.1735C251.659 78.6113 252.019 79.2405 252.259 80.0602L250.151 80.5494C250.027 80.0186 249.766 79.599 249.368 79.2916C248.975 78.9842 248.495 78.8307 247.93 78.8307C247.148 78.8307 246.513 79.1033 246.024 79.6481C245.54 80.193 245.298 81.0754 245.298 82.2955C245.298 83.5901 245.537 84.5125 246.017 85.0621C246.496 85.6117 247.12 85.8873 247.887 85.8873C248.452 85.8873 248.939 85.7122 249.347 85.3629C249.754 85.0136 250.046 84.464 250.224 83.7145L252.287 84.3502C251.971 85.4678 251.443 86.2995 250.705 86.8444C249.972 87.3845 249.039 87.6539 247.908 87.6539C246.508 87.6539 245.357 87.1911 244.456 86.2643C243.555 85.3328 243.105 84.0612 243.104 82.4498C243.104 80.7452 243.558 79.4219 244.464 78.4811C245.37 77.5359 246.561 77.0632 248.037 77.0631Z" stroke="white"/>
<path d="M239.242 84.0775V77.2377H241.22V87.4799H239.084L234.834 80.8011V87.4799H232.856V77.2377H234.928L239.242 84.0775Z" fill="white" fill-opacity="0.5"/>
<path d="M239.242 84.0775V77.2377H241.22V87.4799H239.084L234.834 80.8011V87.4799H232.856V77.2377H234.928L239.242 84.0775Z" stroke="white"/>
<path d="M230.833 78.9701H225.146V81.2406H230.438V82.9662H225.146V85.7543H231.034V87.4799H223.017V77.2377H230.833V78.9701Z" fill="white" fill-opacity="0.5"/>
<path d="M230.833 78.9701H225.146V81.2406H230.438V82.9662H225.146V85.7543H231.034V87.4799H223.017V77.2377H230.833V78.9701Z" stroke="white"/>
<path d="M220.979 87.4799H218.85V77.2377H220.979V87.4799Z" fill="white" fill-opacity="0.5"/>
<path d="M220.979 87.4799H218.85V77.2377H220.979V87.4799Z" stroke="white"/>
<path d="M212.759 77.2377C213.885 77.2377 214.703 77.3308 215.211 77.517C215.724 77.6986 216.135 78.0251 216.441 78.4955C216.748 78.9657 216.901 79.5036 216.901 80.1088C216.901 80.8771 216.669 81.513 216.204 82.016C215.739 82.5143 215.043 82.8289 214.118 82.9594C214.578 83.2202 214.958 83.5067 215.255 83.8187C215.557 84.1308 215.962 84.6855 216.47 85.4818L217.757 87.4799H215.211L213.673 85.2513C213.127 84.4553 212.752 83.9545 212.551 83.7494C212.35 83.5399 212.136 83.3972 211.911 83.3226C211.686 83.2435 211.328 83.2045 210.839 83.2045H210.408V87.4799H208.279V77.2377H212.759ZM210.408 81.5687H211.982C213.004 81.5687 213.641 81.5276 213.896 81.4437C214.15 81.3599 214.348 81.2151 214.492 81.0101C214.636 80.8052 214.708 80.5489 214.708 80.2416C214.708 79.897 214.612 79.6201 214.42 79.4105C214.233 79.1964 213.967 79.0611 213.622 79.0052C213.449 78.982 212.932 78.9701 212.069 78.9701H210.408V81.5687Z" fill="white" fill-opacity="0.5"/>
<path d="M212.759 77.2377C213.885 77.2377 214.703 77.3308 215.211 77.517C215.724 77.6986 216.135 78.0251 216.441 78.4955C216.748 78.9657 216.901 79.5036 216.901 80.1088C216.901 80.8771 216.669 81.513 216.204 82.016C215.739 82.5143 215.043 82.8289 214.118 82.9594C214.578 83.2202 214.958 83.5067 215.255 83.8187C215.557 84.1308 215.962 84.6855 216.47 85.4818L217.757 87.4799H215.211L213.673 85.2513C213.127 84.4553 212.752 83.9545 212.551 83.7494C212.35 83.5399 212.136 83.3972 211.911 83.3226C211.686 83.2435 211.328 83.2045 210.839 83.2045H210.408V87.4799H208.279V77.2377H212.759ZM210.408 81.5687H211.982C213.004 81.5687 213.641 81.5276 213.896 81.4437C214.15 81.3599 214.348 81.2151 214.492 81.0101C214.636 80.8052 214.708 80.5489 214.708 80.2416C214.708 79.897 214.612 79.6201 214.42 79.4105C214.233 79.1964 213.967 79.0611 213.622 79.0052C213.449 78.982 212.932 78.9701 212.069 78.9701H210.408V81.5687Z" stroke="white"/>
<path d="M206.267 78.9701H200.579V81.2406H205.871V82.9662H200.579V85.7543H206.468V87.4799H198.45V77.2377H206.267V78.9701Z" fill="white" fill-opacity="0.5"/>
<path d="M206.267 78.9701H200.579V81.2406H205.871V82.9662H200.579V85.7543H206.468V87.4799H198.45V77.2377H206.267V78.9701Z" stroke="white"/>
<path d="M192.044 77.2377C193.338 77.2377 194.182 77.2885 194.575 77.391C195.179 77.5447 195.684 77.8809 196.092 78.3978C196.499 78.91 196.703 79.5733 196.703 80.3881C196.703 81.0168 196.585 81.5455 196.351 81.974C196.116 82.4025 195.816 82.7408 195.452 82.9877C195.093 83.2298 194.725 83.3899 194.352 83.4691C193.843 83.5669 193.108 83.6166 192.145 83.6166H190.757V87.4799H188.628V77.2377H192.044ZM190.757 81.8763H191.921C192.76 81.8763 193.322 81.8233 193.604 81.7162C193.887 81.6091 194.107 81.4413 194.266 81.2133C194.429 80.985 194.51 80.7191 194.51 80.4164C194.51 80.0438 194.397 79.7367 194.172 79.4945C193.947 79.2523 193.662 79.101 193.316 79.0404C193.062 78.9938 192.552 78.9701 191.785 78.9701H190.757V81.8763Z" fill="white" fill-opacity="0.5"/>
<path d="M192.044 77.2377C193.338 77.2377 194.182 77.2885 194.575 77.391C195.179 77.5447 195.684 77.8809 196.092 78.3978C196.499 78.91 196.703 79.5733 196.703 80.3881C196.703 81.0168 196.585 81.5455 196.351 81.974C196.116 82.4025 195.816 82.7408 195.452 82.9877C195.093 83.2298 194.725 83.3899 194.352 83.4691C193.843 83.5669 193.108 83.6166 192.145 83.6166H190.757V87.4799H188.628V77.2377H192.044ZM190.757 81.8763H191.921C192.76 81.8763 193.322 81.8233 193.604 81.7162C193.887 81.6091 194.107 81.4413 194.266 81.2133C194.429 80.985 194.51 80.7191 194.51 80.4164C194.51 80.0438 194.397 79.7367 194.172 79.4945C193.947 79.2523 193.662 79.101 193.316 79.0404C193.062 78.9938 192.552 78.9701 191.785 78.9701H190.757V81.8763Z" stroke="white"/>
<path d="M182.674 80.5287L184.744 77.2377H187.211L183.932 82.2123L187.534 87.4799H184.968L182.631 83.9379L180.286 87.4799H177.733L181.336 82.1351L178.071 77.2377H180.56L182.674 80.5287Z" fill="white" fill-opacity="0.5"/>
<path d="M182.674 80.5287L184.744 77.2377H187.211L183.932 82.2123L187.534 87.4799H184.968L182.631 83.9379L180.286 87.4799H177.733L181.336 82.1351L178.071 77.2377H180.56L182.674 80.5287Z" stroke="white"/>
<path d="M176.799 78.9701H171.111V81.2406H176.403V82.9662H171.111V85.7543H177V87.4799H168.982V77.2377H176.799V78.9701Z" fill="white" fill-opacity="0.5"/>
<path d="M176.799 78.9701H171.111V81.2406H176.403V82.9662H171.111V85.7543H177V87.4799H168.982V77.2377H176.799V78.9701Z" stroke="white"/>
<path d="M160.649 84.0775V77.2377H162.627V87.4799H160.491L156.241 80.8011V87.4799H154.264V77.2377H156.335L160.649 84.0775Z" fill="white" fill-opacity="0.5"/>
<path d="M160.649 84.0775V77.2377H162.627V87.4799H160.491L156.241 80.8011V87.4799H154.264V77.2377H156.335L160.649 84.0775Z" stroke="white"/>
<path d="M153.106 87.4799H150.791L149.87 85.1527H145.656L144.786 87.4799H142.528L146.635 77.2377H148.885L153.106 87.4799ZM146.311 83.4271H149.188L147.734 79.6273L146.311 83.4271Z" fill="white" fill-opacity="0.5"/>
<path d="M153.106 87.4799H150.791L149.87 85.1527H145.656L144.786 87.4799H142.528L146.635 77.2377H148.885L153.106 87.4799ZM146.311 83.4271H149.188L147.734 79.6273L146.311 83.4271Z" stroke="white"/>
<path d="M136.401 84.224L138.292 77.2377H141.485V87.4799H139.508V79.4174L137.415 87.4799H135.365L133.28 79.4174V87.4799H131.303V77.2377H134.488L136.401 84.224Z" fill="white" fill-opacity="0.5"/>
<path d="M136.401 84.224L138.292 77.2377H141.485V87.4799H139.508V79.4174L137.415 87.4799H135.365L133.28 79.4174V87.4799H131.303V77.2377H134.488L136.401 84.224Z" stroke="white"/>
<path d="M122.805 82.7845C122.805 83.6648 122.831 84.2356 122.884 84.4965C122.975 84.9155 123.19 85.253 123.53 85.5092C123.875 85.7607 124.346 85.8871 124.94 85.8871C125.544 85.887 126 85.7681 126.307 85.5306C126.613 85.2885 126.798 84.9922 126.86 84.6429C126.923 84.2936 126.953 83.7138 126.953 82.9037V77.2377H129.082V82.6176C129.082 83.8469 129.024 84.7154 128.909 85.223C128.794 85.7306 128.581 86.1589 128.27 86.5082C127.963 86.8575 127.55 87.1375 127.032 87.347C126.515 87.5519 125.839 87.6546 125.005 87.6547C123.998 87.6547 123.233 87.5423 122.711 87.3187C122.193 87.0906 121.783 86.7974 121.481 86.4388C121.18 86.0757 120.981 85.6959 120.885 85.3002C120.746 84.7133 120.676 83.8463 120.676 82.7006V77.2377H122.805V82.7845Z" fill="white" fill-opacity="0.5"/>
<path d="M122.805 82.7845C122.805 83.6648 122.831 84.2356 122.884 84.4965C122.975 84.9155 123.19 85.253 123.53 85.5092C123.875 85.7607 124.346 85.8871 124.94 85.8871C125.544 85.887 126 85.7681 126.307 85.5306C126.613 85.2885 126.798 84.9922 126.86 84.6429C126.923 84.2936 126.953 83.7138 126.953 82.9037V77.2377H129.082V82.6176C129.082 83.8469 129.024 84.7154 128.909 85.223C128.794 85.7306 128.581 86.1589 128.27 86.5082C127.963 86.8575 127.55 87.1375 127.032 87.347C126.515 87.5519 125.839 87.6546 125.005 87.6547C123.998 87.6547 123.233 87.5423 122.711 87.3187C122.193 87.0906 121.783 86.7974 121.481 86.4388C121.18 86.0757 120.981 85.6959 120.885 85.3002C120.746 84.7133 120.676 83.8463 120.676 82.7006V77.2377H122.805V82.7845Z" stroke="white"/>
<path d="M112.181 81.2689H116.351V77.2377H118.479V87.4799H116.351V83.0013H112.181V87.4799H110.052V77.2377H112.181V81.2689Z" fill="white" fill-opacity="0.5"/>
<path d="M112.181 81.2689H116.351V77.2377H118.479V87.4799H116.351V83.0013H112.181V87.4799H110.052V77.2377H112.181V81.2689Z" stroke="white"/>
<path d="M104.186 78.9701H99.0879V81.3949H103.488V83.1273H99.0879V87.4799H96.959V77.2377H104.186V78.9701Z" fill="white" fill-opacity="0.5"/>
<path d="M104.186 78.9701H99.0879V81.3949H103.488V83.1273H99.0879V87.4799H96.959V77.2377H104.186V78.9701Z" stroke="white"/>
<path d="M90.1504 77.0631C91.7035 77.0632 92.945 77.5313 93.875 78.4674C94.8098 79.4036 95.2773 80.7053 95.2773 82.3727C95.2773 84.0261 94.8149 85.3213 93.8896 86.2574C92.9644 87.1889 91.7271 87.6539 90.1787 87.6539C88.6112 87.6539 87.3646 87.1911 86.4395 86.2643C85.5142 85.3328 85.0518 84.0517 85.0518 82.4215C85.0518 81.3783 85.212 80.5025 85.5332 79.7946C85.7729 79.2729 86.0995 78.8048 86.5117 78.3903C86.9287 77.9759 87.3842 77.6686 87.8779 77.4684C88.5347 77.1983 89.2923 77.0631 90.1504 77.0631ZM90.1719 78.8307C89.2948 78.8307 88.5877 79.124 88.0508 79.7106C87.5139 80.2928 87.2451 81.1738 87.2451 82.3522C87.2452 83.5117 87.521 84.392 88.0723 84.9928C88.6235 85.5888 89.3235 85.8873 90.1719 85.8873C91.0203 85.8873 91.7152 85.591 92.2568 84.9996C92.8033 84.4035 93.0771 83.5115 93.0771 82.3239C93.0771 81.1501 92.8104 80.2744 92.2783 79.6969C91.751 79.1195 91.049 78.8307 90.1719 78.8307Z" fill="white" fill-opacity="0.5"/>
<path d="M90.1504 77.0631C91.7035 77.0632 92.945 77.5313 93.875 78.4674C94.8098 79.4036 95.2773 80.7053 95.2773 82.3727C95.2773 84.0261 94.8149 85.3213 93.8896 86.2574C92.9644 87.1889 91.7271 87.6539 90.1787 87.6539C88.6112 87.6539 87.3646 87.1911 86.4395 86.2643C85.5142 85.3328 85.0518 84.0517 85.0518 82.4215C85.0518 81.3783 85.212 80.5025 85.5332 79.7946C85.7729 79.2729 86.0995 78.8048 86.5117 78.3903C86.9287 77.9759 87.3842 77.6686 87.8779 77.4684C88.5347 77.1983 89.2923 77.0631 90.1504 77.0631ZM90.1719 78.8307C89.2948 78.8307 88.5877 79.124 88.0508 79.7106C87.5139 80.2928 87.2451 81.1738 87.2451 82.3522C87.2452 83.5117 87.521 84.392 88.0723 84.9928C88.6235 85.5888 89.3235 85.8873 90.1719 85.8873C91.0203 85.8873 91.7152 85.591 92.2568 84.9996C92.8033 84.4035 93.0771 83.5115 93.0771 82.3239C93.0771 81.1501 92.8104 80.2744 92.2783 79.6969C91.751 79.1195 91.049 78.8307 90.1719 78.8307Z" stroke="white"/>
<path d="M79.2891 87.48H77.2686V85.5171H79.2891V87.48Z" fill="white" fill-opacity="0.5"/>
<path d="M79.2891 87.48H77.2686V85.5171H79.2891V87.48Z" stroke="white"/>
<path d="M77.541 78.9701H74.4209V87.4799H72.292V78.9701H69.1641V77.2377H77.541V78.9701Z" fill="white" fill-opacity="0.5"/>
<path d="M77.541 78.9701H74.4209V87.4799H72.292V78.9701H69.1641V77.2377H77.541V78.9701Z" stroke="white"/>
<path d="M63.5137 77.2377C64.8078 77.2377 65.6519 77.2885 66.0449 77.391C66.6488 77.5447 67.1541 77.8809 67.5615 78.3978C67.9689 78.91 68.1728 79.5733 68.1729 80.3881C68.1729 81.0168 68.0552 81.5455 67.8203 81.974C67.5854 82.4025 67.2862 82.7408 66.9219 82.9877C66.5624 83.2298 66.1952 83.3899 65.8213 83.4691C65.3132 83.5669 64.5776 83.6166 63.6143 83.6166H62.2266V87.4799H60.0977V77.2377H63.5137ZM62.2266 81.8763H63.3906C64.2296 81.8763 64.7914 81.8233 65.0742 81.7162C65.3568 81.6091 65.5772 81.4413 65.7354 81.2133C65.8983 80.985 65.9795 80.7191 65.9795 80.4164C65.9795 80.0438 65.8669 79.7367 65.6416 79.4945C65.4163 79.2523 65.1313 79.101 64.7861 79.0404C64.5321 78.9938 64.0217 78.9701 63.2549 78.9701H62.2266V81.8763Z" fill="white" fill-opacity="0.5"/>
<path d="M63.5137 77.2377C64.8078 77.2377 65.6519 77.2885 66.0449 77.391C66.6488 77.5447 67.1541 77.8809 67.5615 78.3978C67.9689 78.91 68.1728 79.5733 68.1729 80.3881C68.1729 81.0168 68.0552 81.5455 67.8203 81.974C67.5854 82.4025 67.2862 82.7408 66.9219 82.9877C66.5624 83.2298 66.1952 83.3899 65.8213 83.4691C65.3132 83.5669 64.5776 83.6166 63.6143 83.6166H62.2266V87.4799H60.0977V77.2377H63.5137ZM62.2266 81.8763H63.3906C64.2296 81.8763 64.7914 81.8233 65.0742 81.7162C65.3568 81.6091 65.5772 81.4413 65.7354 81.2133C65.8983 80.985 65.9795 80.7191 65.9795 80.4164C65.9795 80.0438 65.8669 79.7367 65.6416 79.4945C65.4163 79.2523 65.1313 79.101 64.7861 79.0404C64.5321 78.9938 64.0217 78.9701 63.2549 78.9701H62.2266V81.8763Z" stroke="white"/>
<path d="M58.0928 78.9701H52.4053V81.2406H57.6973V82.9662H52.4053V85.7543H58.2939V87.4799H50.2764V77.2377H58.0928V78.9701Z" fill="white" fill-opacity="0.5"/>
<path d="M58.0928 78.9701H52.4053V81.2406H57.6973V82.9662H52.4053V85.7543H58.2939V87.4799H50.2764V77.2377H58.0928V78.9701Z" stroke="white"/>
<path d="M43.5166 77.2377C44.3936 77.2377 45.0623 77.3026 45.5225 77.433C46.1408 77.6099 46.6703 77.9247 47.1113 78.3763C47.5524 78.8281 47.8881 79.3827 48.1182 80.0394C48.3482 80.6915 48.4639 81.497 48.4639 82.4564C48.4639 83.2994 48.3554 84.026 48.1396 84.6361C47.876 85.3813 47.4997 85.9846 47.0107 86.4457C46.6417 86.7949 46.1434 87.0675 45.5156 87.2631C45.0458 87.4074 44.4171 87.4799 43.6309 87.4799H39.626V77.2377H43.5166ZM41.7549 85.7543H43.3438C43.9381 85.7543 44.3672 85.7218 44.6309 85.6566C44.976 85.5728 45.261 85.4301 45.4863 85.2299C45.7164 85.0296 45.904 84.7009 46.0479 84.2445C46.1916 83.7835 46.2637 83.1571 46.2637 82.3656C46.2637 81.574 46.1916 80.9662 46.0479 80.5424C45.904 80.1185 45.7022 79.7877 45.4434 79.5502C45.1845 79.3126 44.8559 79.1516 44.458 79.0677C44.1607 79.0026 43.5783 78.9701 42.7109 78.9701H41.7549V85.7543Z" fill="white" fill-opacity="0.5"/>
<path d="M43.5166 77.2377C44.3936 77.2377 45.0623 77.3026 45.5225 77.433C46.1408 77.6099 46.6703 77.9247 47.1113 78.3763C47.5524 78.8281 47.8881 79.3827 48.1182 80.0394C48.3482 80.6915 48.4639 81.497 48.4639 82.4564C48.4639 83.2994 48.3554 84.026 48.1396 84.6361C47.876 85.3813 47.4997 85.9846 47.0107 86.4457C46.6417 86.7949 46.1434 87.0675 45.5156 87.2631C45.0458 87.4074 44.4171 87.4799 43.6309 87.4799H39.626V77.2377H43.5166ZM41.7549 85.7543H43.3438C43.9381 85.7543 44.3672 85.7218 44.6309 85.6566C44.976 85.5728 45.261 85.4301 45.4863 85.2299C45.7164 85.0296 45.904 84.7009 46.0479 84.2445C46.1916 83.7835 46.2637 83.1571 46.2637 82.3656C46.2637 81.574 46.1916 80.9662 46.0479 80.5424C45.904 80.1185 45.7022 79.7877 45.4434 79.5502C45.1845 79.3126 44.8559 79.1516 44.458 79.0677C44.1607 79.0026 43.5783 78.9701 42.7109 78.9701H41.7549V85.7543Z" stroke="white"/>
<path d="M68.9762 20.1365C68.9762 19.4541 66.5957 18.9628 61.8346 18.6625C57.1007 18.3622 51.731 18.1712 45.7256 18.0893C39.7472 17.9801 33.9988 17.9391 28.4804 17.9664C22.9889 17.9937 19.4723 18.0074 17.9303 18.0074V43.7621C19.4723 43.7621 22.9889 43.7894 28.4804 43.844C33.9988 43.8713 39.7472 43.8304 45.7256 43.7212C51.731 43.612 57.1007 43.4073 61.8346 43.107C66.5957 42.8067 68.9762 42.3017 68.9762 41.592V20.1365ZM43.4533 52.2788H9.40918V9.40881H43.4533C52.8401 9.40881 60.8473 10.4597 67.4748 12.5616C74.1295 14.6635 77.4568 17.1885 77.4568 20.1365V41.592C77.4568 44.5674 74.1295 47.0924 67.4748 49.1669C60.8473 51.2415 52.8401 52.2788 43.4533 52.2788Z" fill="white" fill-opacity="0.5"/>
<path d="M92.4277 51.598V43.4323H101.274V51.598H92.4277Z" fill="white" fill-opacity="0.5"/>
<path d="M116.245 9.40881H124.851V25.5004C124.851 26.2101 127.529 26.7424 132.884 27.0973C138.267 27.4522 144.168 27.6296 150.589 27.6296C157.037 27.6296 162.952 27.4522 168.334 27.0973C173.717 26.7424 176.408 26.2101 176.408 25.5004V9.40881H184.973V52.2788H176.408V32.584C169.577 35.0134 160.985 36.2281 150.63 36.2281C140.247 36.2281 131.655 35.0134 124.851 32.584V52.2788H116.245V25.5004V9.40881Z" fill="white" fill-opacity="0.5"/>
<path d="M199.942 51.5987V42.7526H208.789V51.5987H199.942Z" fill="white" fill-opacity="0.5"/>
<path d="M232.367 20.1365V26.565H283.923V35.1636H232.367V41.592C232.367 42.329 235.195 42.8613 240.851 43.1889C246.506 43.4892 252.886 43.6939 259.99 43.8031C267.093 43.885 273.883 43.8986 280.358 43.844C286.833 43.7894 290.877 43.7621 292.489 43.7621V52.2788H258.145C248.637 52.2788 240.523 51.2415 233.802 49.1669C227.108 47.0924 223.761 44.5674 223.761 41.592V20.1365C223.761 17.1885 227.108 14.6635 233.802 12.5616C240.523 10.4597 248.637 9.40881 258.145 9.40881H292.489V18.0074C290.877 18.0074 286.833 17.9937 280.358 17.9664C273.883 17.9118 267.093 17.9255 259.99 18.0074C252.886 18.0893 246.506 18.294 240.851 18.6216C235.195 18.9218 232.367 19.4268 232.367 20.1365Z" fill="white" fill-opacity="0.5"/>
<path d="M307.458 51.5987V42.7526H316.304V51.5987H307.458Z" fill="white" fill-opacity="0.5"/>
</g>
<path d="M261.938 78.9701H256.25V81.2406H261.542V82.9662H256.25V85.7543H262.139V87.4799H254.121V77.2377H261.938V78.9701Z" fill="white"/>
<path d="M261.938 78.9701H256.25V81.2406H261.542V82.9662H256.25V85.7543H262.139V87.4799H254.121V77.2377H261.938V78.9701Z" stroke="white"/>
<path d="M248.037 77.0631C249.326 77.0631 250.374 77.4331 251.18 78.1735C251.659 78.6113 252.019 79.2405 252.259 80.0602L250.151 80.5494C250.027 80.0186 249.766 79.599 249.368 79.2916C248.975 78.9842 248.495 78.8307 247.93 78.8307C247.148 78.8307 246.513 79.1033 246.024 79.6481C245.54 80.193 245.298 81.0754 245.298 82.2955C245.298 83.5901 245.537 84.5125 246.017 85.0621C246.496 85.6117 247.12 85.8873 247.887 85.8873C248.452 85.8873 248.939 85.7122 249.347 85.3629C249.754 85.0136 250.046 84.464 250.224 83.7145L252.287 84.3502C251.971 85.4678 251.443 86.2995 250.705 86.8444C249.972 87.3845 249.039 87.6539 247.908 87.6539C246.508 87.6539 245.357 87.1911 244.456 86.2643C243.555 85.3328 243.105 84.0612 243.104 82.4498C243.104 80.7452 243.558 79.4219 244.464 78.4811C245.37 77.5359 246.561 77.0632 248.037 77.0631Z" fill="white"/>
<path d="M248.037 77.0631C249.326 77.0631 250.374 77.4331 251.18 78.1735C251.659 78.6113 252.019 79.2405 252.259 80.0602L250.151 80.5494C250.027 80.0186 249.766 79.599 249.368 79.2916C248.975 78.9842 248.495 78.8307 247.93 78.8307C247.148 78.8307 246.513 79.1033 246.024 79.6481C245.54 80.193 245.298 81.0754 245.298 82.2955C245.298 83.5901 245.537 84.5125 246.017 85.0621C246.496 85.6117 247.12 85.8873 247.887 85.8873C248.452 85.8873 248.939 85.7122 249.347 85.3629C249.754 85.0136 250.046 84.464 250.224 83.7145L252.287 84.3502C251.971 85.4678 251.443 86.2995 250.705 86.8444C249.972 87.3845 249.039 87.6539 247.908 87.6539C246.508 87.6539 245.357 87.1911 244.456 86.2643C243.555 85.3328 243.105 84.0612 243.104 82.4498C243.104 80.7452 243.558 79.4219 244.464 78.4811C245.37 77.5359 246.561 77.0632 248.037 77.0631Z" stroke="white"/>
<path d="M239.242 84.0775V77.2377H241.22V87.4799H239.084L234.834 80.8011V87.4799H232.856V77.2377H234.928L239.242 84.0775Z" fill="white"/>
<path d="M239.242 84.0775V77.2377H241.22V87.4799H239.084L234.834 80.8011V87.4799H232.856V77.2377H234.928L239.242 84.0775Z" stroke="white"/>
<path d="M230.833 78.9701H225.146V81.2406H230.438V82.9662H225.146V85.7543H231.034V87.4799H223.017V77.2377H230.833V78.9701Z" fill="white"/>
<path d="M230.833 78.9701H225.146V81.2406H230.438V82.9662H225.146V85.7543H231.034V87.4799H223.017V77.2377H230.833V78.9701Z" stroke="white"/>
<path d="M220.979 87.4799H218.85V77.2377H220.979V87.4799Z" fill="white"/>
<path d="M220.979 87.4799H218.85V77.2377H220.979V87.4799Z" stroke="white"/>
<path d="M212.759 77.2377C213.885 77.2377 214.703 77.3308 215.211 77.517C215.724 77.6986 216.135 78.0251 216.441 78.4955C216.748 78.9657 216.901 79.5036 216.901 80.1088C216.901 80.8771 216.669 81.513 216.204 82.016C215.739 82.5143 215.043 82.8289 214.118 82.9594C214.578 83.2202 214.958 83.5067 215.255 83.8187C215.557 84.1308 215.962 84.6855 216.47 85.4818L217.757 87.4799H215.211L213.673 85.2513C213.127 84.4553 212.752 83.9545 212.551 83.7494C212.35 83.5399 212.136 83.3972 211.911 83.3226C211.686 83.2435 211.328 83.2045 210.839 83.2045H210.408V87.4799H208.279V77.2377H212.759ZM210.408 81.5687H211.982C213.004 81.5687 213.641 81.5276 213.896 81.4437C214.15 81.3599 214.348 81.2151 214.492 81.0101C214.636 80.8052 214.708 80.5489 214.708 80.2416C214.708 79.897 214.612 79.6201 214.42 79.4105C214.233 79.1964 213.967 79.0611 213.622 79.0052C213.449 78.982 212.932 78.9701 212.069 78.9701H210.408V81.5687Z" fill="white"/>
<path d="M212.759 77.2377C213.885 77.2377 214.703 77.3308 215.211 77.517C215.724 77.6986 216.135 78.0251 216.441 78.4955C216.748 78.9657 216.901 79.5036 216.901 80.1088C216.901 80.8771 216.669 81.513 216.204 82.016C215.739 82.5143 215.043 82.8289 214.118 82.9594C214.578 83.2202 214.958 83.5067 215.255 83.8187C215.557 84.1308 215.962 84.6855 216.47 85.4818L217.757 87.4799H215.211L213.673 85.2513C213.127 84.4553 212.752 83.9545 212.551 83.7494C212.35 83.5399 212.136 83.3972 211.911 83.3226C211.686 83.2435 211.328 83.2045 210.839 83.2045H210.408V87.4799H208.279V77.2377H212.759ZM210.408 81.5687H211.982C213.004 81.5687 213.641 81.5276 213.896 81.4437C214.15 81.3599 214.348 81.2151 214.492 81.0101C214.636 80.8052 214.708 80.5489 214.708 80.2416C214.708 79.897 214.612 79.6201 214.42 79.4105C214.233 79.1964 213.967 79.0611 213.622 79.0052C213.449 78.982 212.932 78.9701 212.069 78.9701H210.408V81.5687Z" stroke="white"/>
<path d="M206.267 78.9701H200.579V81.2406H205.871V82.9662H200.579V85.7543H206.468V87.4799H198.45V77.2377H206.267V78.9701Z" fill="white"/>
<path d="M206.267 78.9701H200.579V81.2406H205.871V82.9662H200.579V85.7543H206.468V87.4799H198.45V77.2377H206.267V78.9701Z" stroke="white"/>
<path d="M192.044 77.2377C193.338 77.2377 194.182 77.2885 194.575 77.391C195.179 77.5447 195.684 77.8809 196.092 78.3978C196.499 78.91 196.703 79.5733 196.703 80.3881C196.703 81.0168 196.585 81.5455 196.351 81.974C196.116 82.4025 195.816 82.7408 195.452 82.9877C195.093 83.2298 194.725 83.3899 194.352 83.4691C193.843 83.5669 193.108 83.6166 192.145 83.6166H190.757V87.4799H188.628V77.2377H192.044ZM190.757 81.8763H191.921C192.76 81.8763 193.322 81.8233 193.604 81.7162C193.887 81.6091 194.107 81.4413 194.266 81.2133C194.429 80.985 194.51 80.7191 194.51 80.4164C194.51 80.0438 194.397 79.7367 194.172 79.4945C193.947 79.2523 193.662 79.101 193.316 79.0404C193.062 78.9938 192.552 78.9701 191.785 78.9701H190.757V81.8763Z" fill="white"/>
<path d="M192.044 77.2377C193.338 77.2377 194.182 77.2885 194.575 77.391C195.179 77.5447 195.684 77.8809 196.092 78.3978C196.499 78.91 196.703 79.5733 196.703 80.3881C196.703 81.0168 196.585 81.5455 196.351 81.974C196.116 82.4025 195.816 82.7408 195.452 82.9877C195.093 83.2298 194.725 83.3899 194.352 83.4691C193.843 83.5669 193.108 83.6166 192.145 83.6166H190.757V87.4799H188.628V77.2377H192.044ZM190.757 81.8763H191.921C192.76 81.8763 193.322 81.8233 193.604 81.7162C193.887 81.6091 194.107 81.4413 194.266 81.2133C194.429 80.985 194.51 80.7191 194.51 80.4164C194.51 80.0438 194.397 79.7367 194.172 79.4945C193.947 79.2523 193.662 79.101 193.316 79.0404C193.062 78.9938 192.552 78.9701 191.785 78.9701H190.757V81.8763Z" stroke="white"/>
<path d="M182.674 80.5287L184.744 77.2377H187.211L183.932 82.2123L187.534 87.4799H184.968L182.631 83.9379L180.286 87.4799H177.733L181.336 82.1351L178.071 77.2377H180.56L182.674 80.5287Z" fill="white"/>
<path d="M182.674 80.5287L184.744 77.2377H187.211L183.932 82.2123L187.534 87.4799H184.968L182.631 83.9379L180.286 87.4799H177.733L181.336 82.1351L178.071 77.2377H180.56L182.674 80.5287Z" stroke="white"/>
<path d="M176.799 78.9701H171.111V81.2406H176.403V82.9662H171.111V85.7543H177V87.4799H168.982V77.2377H176.799V78.9701Z" fill="white"/>
<path d="M176.799 78.9701H171.111V81.2406H176.403V82.9662H171.111V85.7543H177V87.4799H168.982V77.2377H176.799V78.9701Z" stroke="white"/>
<path d="M160.649 84.0775V77.2377H162.627V87.4799H160.491L156.241 80.8011V87.4799H154.264V77.2377H156.335L160.649 84.0775Z" fill="white"/>
<path d="M160.649 84.0775V77.2377H162.627V87.4799H160.491L156.241 80.8011V87.4799H154.264V77.2377H156.335L160.649 84.0775Z" stroke="white"/>
<path d="M153.106 87.4799H150.791L149.87 85.1527H145.656L144.786 87.4799H142.528L146.635 77.2377H148.885L153.106 87.4799ZM146.311 83.4271H149.188L147.734 79.6273L146.311 83.4271Z" fill="white"/>
<path d="M153.106 87.4799H150.791L149.87 85.1527H145.656L144.786 87.4799H142.528L146.635 77.2377H148.885L153.106 87.4799ZM146.311 83.4271H149.188L147.734 79.6273L146.311 83.4271Z" stroke="white"/>
<path d="M136.401 84.224L138.292 77.2377H141.485V87.4799H139.508V79.4174L137.415 87.4799H135.365L133.28 79.4174V87.4799H131.303V77.2377H134.488L136.401 84.224Z" fill="white"/>
<path d="M136.401 84.224L138.292 77.2377H141.485V87.4799H139.508V79.4174L137.415 87.4799H135.365L133.28 79.4174V87.4799H131.303V77.2377H134.488L136.401 84.224Z" stroke="white"/>
<path d="M122.805 82.7845C122.805 83.6648 122.831 84.2356 122.884 84.4965C122.975 84.9155 123.19 85.253 123.53 85.5092C123.875 85.7607 124.346 85.8871 124.94 85.8871C125.544 85.887 126 85.7681 126.307 85.5306C126.613 85.2885 126.798 84.9922 126.86 84.6429C126.923 84.2936 126.953 83.7138 126.953 82.9037V77.2377H129.082V82.6176C129.082 83.8469 129.024 84.7154 128.909 85.223C128.794 85.7306 128.581 86.1589 128.27 86.5082C127.963 86.8575 127.55 87.1375 127.032 87.347C126.515 87.5519 125.839 87.6546 125.005 87.6547C123.998 87.6547 123.233 87.5423 122.711 87.3187C122.193 87.0906 121.783 86.7974 121.481 86.4388C121.18 86.0757 120.981 85.6959 120.885 85.3002C120.746 84.7133 120.676 83.8463 120.676 82.7006V77.2377H122.805V82.7845Z" fill="white"/>
<path d="M122.805 82.7845C122.805 83.6648 122.831 84.2356 122.884 84.4965C122.975 84.9155 123.19 85.253 123.53 85.5092C123.875 85.7607 124.346 85.8871 124.94 85.8871C125.544 85.887 126 85.7681 126.307 85.5306C126.613 85.2885 126.798 84.9922 126.86 84.6429C126.923 84.2936 126.953 83.7138 126.953 82.9037V77.2377H129.082V82.6176C129.082 83.8469 129.024 84.7154 128.909 85.223C128.794 85.7306 128.581 86.1589 128.27 86.5082C127.963 86.8575 127.55 87.1375 127.032 87.347C126.515 87.5519 125.839 87.6546 125.005 87.6547C123.998 87.6547 123.233 87.5423 122.711 87.3187C122.193 87.0906 121.783 86.7974 121.481 86.4388C121.18 86.0757 120.981 85.6959 120.885 85.3002C120.746 84.7133 120.676 83.8463 120.676 82.7006V77.2377H122.805V82.7845Z" stroke="white"/>
<path d="M112.181 81.2689H116.351V77.2377H118.479V87.4799H116.351V83.0013H112.181V87.4799H110.052V77.2377H112.181V81.2689Z" fill="white"/>
<path d="M112.181 81.2689H116.351V77.2377H118.479V87.4799H116.351V83.0013H112.181V87.4799H110.052V77.2377H112.181V81.2689Z" stroke="white"/>
<path d="M104.186 78.9701H99.0879V81.3949H103.488V83.1273H99.0879V87.4799H96.959V77.2377H104.186V78.9701Z" fill="white"/>
<path d="M104.186 78.9701H99.0879V81.3949H103.488V83.1273H99.0879V87.4799H96.959V77.2377H104.186V78.9701Z" stroke="white"/>
<path d="M90.1504 77.0631C91.7035 77.0632 92.945 77.5313 93.875 78.4674C94.8098 79.4036 95.2773 80.7053 95.2773 82.3727C95.2773 84.0261 94.8149 85.3213 93.8896 86.2574C92.9644 87.1889 91.7271 87.6539 90.1787 87.6539C88.6112 87.6539 87.3646 87.1911 86.4395 86.2643C85.5142 85.3328 85.0518 84.0517 85.0518 82.4215C85.0518 81.3783 85.212 80.5025 85.5332 79.7946C85.7729 79.2729 86.0995 78.8048 86.5117 78.3903C86.9287 77.9759 87.3842 77.6686 87.8779 77.4684C88.5347 77.1983 89.2923 77.0631 90.1504 77.0631ZM90.1719 78.8307C89.2948 78.8307 88.5877 79.124 88.0508 79.7106C87.5139 80.2928 87.2451 81.1738 87.2451 82.3522C87.2452 83.5117 87.521 84.392 88.0723 84.9928C88.6235 85.5888 89.3235 85.8873 90.1719 85.8873C91.0203 85.8873 91.7152 85.591 92.2568 84.9996C92.8033 84.4035 93.0771 83.5115 93.0771 82.3239C93.0771 81.1501 92.8104 80.2744 92.2783 79.6969C91.751 79.1195 91.049 78.8307 90.1719 78.8307Z" fill="white"/>
<path d="M90.1504 77.0631C91.7035 77.0632 92.945 77.5313 93.875 78.4674C94.8098 79.4036 95.2773 80.7053 95.2773 82.3727C95.2773 84.0261 94.8149 85.3213 93.8896 86.2574C92.9644 87.1889 91.7271 87.6539 90.1787 87.6539C88.6112 87.6539 87.3646 87.1911 86.4395 86.2643C85.5142 85.3328 85.0518 84.0517 85.0518 82.4215C85.0518 81.3783 85.212 80.5025 85.5332 79.7946C85.7729 79.2729 86.0995 78.8048 86.5117 78.3903C86.9287 77.9759 87.3842 77.6686 87.8779 77.4684C88.5347 77.1983 89.2923 77.0631 90.1504 77.0631ZM90.1719 78.8307C89.2948 78.8307 88.5877 79.124 88.0508 79.7106C87.5139 80.2928 87.2451 81.1738 87.2451 82.3522C87.2452 83.5117 87.521 84.392 88.0723 84.9928C88.6235 85.5888 89.3235 85.8873 90.1719 85.8873C91.0203 85.8873 91.7152 85.591 92.2568 84.9996C92.8033 84.4035 93.0771 83.5115 93.0771 82.3239C93.0771 81.1501 92.8104 80.2744 92.2783 79.6969C91.751 79.1195 91.049 78.8307 90.1719 78.8307Z" stroke="white"/>
<path d="M79.2891 87.48H77.2686V85.5171H79.2891V87.48Z" fill="white"/>
<path d="M79.2891 87.48H77.2686V85.5171H79.2891V87.48Z" stroke="white"/>
<path d="M77.541 78.9701H74.4209V87.4799H72.292V78.9701H69.1641V77.2377H77.541V78.9701Z" fill="white"/>
<path d="M77.541 78.9701H74.4209V87.4799H72.292V78.9701H69.1641V77.2377H77.541V78.9701Z" stroke="white"/>
<path d="M63.5137 77.2377C64.8078 77.2377 65.6519 77.2885 66.0449 77.391C66.6488 77.5447 67.1541 77.8809 67.5615 78.3978C67.9689 78.91 68.1728 79.5733 68.1729 80.3881C68.1729 81.0168 68.0552 81.5455 67.8203 81.974C67.5854 82.4025 67.2862 82.7408 66.9219 82.9877C66.5624 83.2298 66.1952 83.3899 65.8213 83.4691C65.3132 83.5669 64.5776 83.6166 63.6143 83.6166H62.2266V87.4799H60.0977V77.2377H63.5137ZM62.2266 81.8763H63.3906C64.2296 81.8763 64.7914 81.8233 65.0742 81.7162C65.3568 81.6091 65.5772 81.4413 65.7354 81.2133C65.8983 80.985 65.9795 80.7191 65.9795 80.4164C65.9795 80.0438 65.8669 79.7367 65.6416 79.4945C65.4163 79.2523 65.1313 79.101 64.7861 79.0404C64.5321 78.9938 64.0217 78.9701 63.2549 78.9701H62.2266V81.8763Z" fill="white"/>
<path d="M63.5137 77.2377C64.8078 77.2377 65.6519 77.2885 66.0449 77.391C66.6488 77.5447 67.1541 77.8809 67.5615 78.3978C67.9689 78.91 68.1728 79.5733 68.1729 80.3881C68.1729 81.0168 68.0552 81.5455 67.8203 81.974C67.5854 82.4025 67.2862 82.7408 66.9219 82.9877C66.5624 83.2298 66.1952 83.3899 65.8213 83.4691C65.3132 83.5669 64.5776 83.6166 63.6143 83.6166H62.2266V87.4799H60.0977V77.2377H63.5137ZM62.2266 81.8763H63.3906C64.2296 81.8763 64.7914 81.8233 65.0742 81.7162C65.3568 81.6091 65.5772 81.4413 65.7354 81.2133C65.8983 80.985 65.9795 80.7191 65.9795 80.4164C65.9795 80.0438 65.8669 79.7367 65.6416 79.4945C65.4163 79.2523 65.1313 79.101 64.7861 79.0404C64.5321 78.9938 64.0217 78.9701 63.2549 78.9701H62.2266V81.8763Z" stroke="white"/>
<path d="M58.0928 78.9701H52.4053V81.2406H57.6973V82.9662H52.4053V85.7543H58.2939V87.4799H50.2764V77.2377H58.0928V78.9701Z" fill="white"/>
<path d="M58.0928 78.9701H52.4053V81.2406H57.6973V82.9662H52.4053V85.7543H58.2939V87.4799H50.2764V77.2377H58.0928V78.9701Z" stroke="white"/>
<path d="M43.5166 77.2377C44.3936 77.2377 45.0623 77.3026 45.5225 77.433C46.1408 77.6099 46.6703 77.9247 47.1113 78.3763C47.5524 78.8281 47.8881 79.3827 48.1182 80.0394C48.3482 80.6915 48.4639 81.497 48.4639 82.4564C48.4639 83.2994 48.3554 84.026 48.1396 84.6361C47.876 85.3813 47.4997 85.9846 47.0107 86.4457C46.6417 86.7949 46.1434 87.0675 45.5156 87.2631C45.0458 87.4074 44.4171 87.4799 43.6309 87.4799H39.626V77.2377H43.5166ZM41.7549 85.7543H43.3438C43.9381 85.7543 44.3672 85.7218 44.6309 85.6566C44.976 85.5728 45.261 85.4301 45.4863 85.2299C45.7164 85.0296 45.904 84.7009 46.0479 84.2445C46.1916 83.7835 46.2637 83.1571 46.2637 82.3656C46.2637 81.574 46.1916 80.9662 46.0479 80.5424C45.904 80.1185 45.7022 79.7877 45.4434 79.5502C45.1845 79.3126 44.8559 79.1516 44.458 79.0677C44.1607 79.0026 43.5783 78.9701 42.7109 78.9701H41.7549V85.7543Z" fill="white"/>
<path d="M43.5166 77.2377C44.3936 77.2377 45.0623 77.3026 45.5225 77.433C46.1408 77.6099 46.6703 77.9247 47.1113 78.3763C47.5524 78.8281 47.8881 79.3827 48.1182 80.0394C48.3482 80.6915 48.4639 81.497 48.4639 82.4564C48.4639 83.2994 48.3554 84.026 48.1396 84.6361C47.876 85.3813 47.4997 85.9846 47.0107 86.4457C46.6417 86.7949 46.1434 87.0675 45.5156 87.2631C45.0458 87.4074 44.4171 87.4799 43.6309 87.4799H39.626V77.2377H43.5166ZM41.7549 85.7543H43.3438C43.9381 85.7543 44.3672 85.7218 44.6309 85.6566C44.976 85.5728 45.261 85.4301 45.4863 85.2299C45.7164 85.0296 45.904 84.7009 46.0479 84.2445C46.1916 83.7835 46.2637 83.1571 46.2637 82.3656C46.2637 81.574 46.1916 80.9662 46.0479 80.5424C45.904 80.1185 45.7022 79.7877 45.4434 79.5502C45.1845 79.3126 44.8559 79.1516 44.458 79.0677C44.1607 79.0026 43.5783 78.9701 42.7109 78.9701H41.7549V85.7543Z" stroke="white"/>
<path d="M68.9762 20.1365C68.9762 19.4541 66.5957 18.9628 61.8346 18.6625C57.1007 18.3622 51.731 18.1712 45.7256 18.0893C39.7472 17.9801 33.9988 17.9391 28.4804 17.9664C22.9889 17.9937 19.4723 18.0074 17.9303 18.0074V43.7621C19.4723 43.7621 22.9889 43.7894 28.4804 43.844C33.9988 43.8713 39.7472 43.8304 45.7256 43.7212C51.731 43.612 57.1007 43.4073 61.8346 43.107C66.5957 42.8067 68.9762 42.3017 68.9762 41.592V20.1365ZM43.4533 52.2788H9.40918V9.40881H43.4533C52.8401 9.40881 60.8473 10.4597 67.4748 12.5616C74.1295 14.6635 77.4568 17.1885 77.4568 20.1365V41.592C77.4568 44.5674 74.1295 47.0924 67.4748 49.1669C60.8473 51.2415 52.8401 52.2788 43.4533 52.2788Z" fill="white"/>
<path d="M92.4277 51.598V43.4323H101.274V51.598H92.4277Z" fill="white"/>
<path d="M116.245 9.40881H124.851V25.5004C124.851 26.2101 127.529 26.7424 132.884 27.0973C138.267 27.4522 144.168 27.6296 150.589 27.6296C157.037 27.6296 162.952 27.4522 168.334 27.0973C173.717 26.7424 176.408 26.2101 176.408 25.5004V9.40881H184.973V52.2788H176.408V32.584C169.577 35.0134 160.985 36.2281 150.63 36.2281C140.247 36.2281 131.655 35.0134 124.851 32.584V52.2788H116.245V25.5004V9.40881Z" fill="white"/>
<path d="M199.942 51.5987V42.7526H208.789V51.5987H199.942Z" fill="white"/>
<path d="M232.367 20.1365V26.565H283.923V35.1636H232.367V41.592C232.367 42.329 235.195 42.8613 240.851 43.1889C246.506 43.4892 252.886 43.6939 259.99 43.8031C267.093 43.885 273.883 43.8986 280.358 43.844C286.833 43.7894 290.877 43.7621 292.489 43.7621V52.2788H258.145C248.637 52.2788 240.523 51.2415 233.802 49.1669C227.108 47.0924 223.761 44.5674 223.761 41.592V20.1365C223.761 17.1885 227.108 14.6635 233.802 12.5616C240.523 10.4597 248.637 9.40881 258.145 9.40881H292.489V18.0074C290.877 18.0074 286.833 17.9937 280.358 17.9664C273.883 17.9118 267.093 17.9255 259.99 18.0074C252.886 18.0893 246.506 18.294 240.851 18.6216C235.195 18.9218 232.367 19.4268 232.367 20.1365Z" fill="white"/>
<path d="M307.458 51.5987V42.7526H316.304V51.5987H307.458Z" fill="white"/>
<defs>
<filter id="filter0_f_532_5408" x="0.000325203" y="-4.1008e-05" width="325.712" height="97.0633" filterUnits="userSpaceOnUse" color-interpolation-filters="sRGB">
<feFlood flood-opacity="0" result="BackgroundImageFix"/>
<feBlend mode="normal" in="SourceGraphic" in2="BackgroundImageFix" result="shape"/>
<feGaussianBlur stdDeviation="4.70443" result="effect1_foregroundBlur_532_5408"/>
</filter>
</defs>
</svg>
