<svg width="348" height="96" viewBox="0 0 348 96" fill="none" xmlns="http://www.w3.org/2000/svg">
<path d="M45.9633 7.65653e-06L6.63931 0.000126349C2.97252 0.000137417 0 2.97266 0 6.63946V42.3608C0 46.0276 2.97253 49.0001 6.63933 49.0001H66.3607C70.0275 49.0001 73 46.0276 73 42.3608V24.8897C73 23.0008 72.1954 21.2013 70.7878 19.9418L50.3904 1.69145C49.1731 0.602214 47.5969 2.72599e-06 45.9633 7.65653e-06Z" fill="url(#paint0_radial_1129_687)"/>
<path d="M20.237 19.0801C19.5564 19.0801 19.0418 18.9058 18.6932 18.5572C18.3446 18.2003 18.1703 17.6857 18.1703 17.0134V12.3073C18.1703 11.6267 18.3446 11.1121 18.6932 10.7635C19.0418 10.4149 19.5564 10.2406 20.237 10.2406H22.9138C23.5944 10.2406 24.109 10.4149 24.4576 10.7635C24.8062 11.1121 24.9805 11.6267 24.9805 12.3073V17.0134C24.9805 17.6857 24.8062 18.2003 24.4576 18.5572C24.109 18.9058 23.5944 19.0801 22.9138 19.0801H20.237ZM22.8391 18.2086C23.2292 18.2086 23.5238 18.109 23.723 17.9098C23.9222 17.7023 24.0218 17.4076 24.0218 17.0258V12.2948C24.0218 11.9047 23.9222 11.6101 23.723 11.4109C23.5238 11.2117 23.2292 11.1121 22.8391 11.1121H20.3117C19.9216 11.1121 19.627 11.2117 19.4278 11.4109C19.2286 11.6101 19.129 11.9047 19.129 12.2948V17.0258C19.129 17.4076 19.2286 17.7023 19.4278 17.9098C19.6353 18.109 19.9299 18.2086 20.3117 18.2086H22.8391ZM21.1085 15.233C20.9923 15.233 20.9342 15.1791 20.9342 15.0712V14.125C20.9342 14.0171 20.9923 13.9631 21.1085 13.9631H22.0547C22.1626 13.9631 22.2166 14.0171 22.2166 14.125V15.0712C22.2166 15.1791 22.1626 15.233 22.0547 15.233H21.1085ZM31.4398 18.1463C31.556 18.1463 31.6141 18.2003 31.6141 18.3082V18.856C31.6141 18.9639 31.556 19.0178 31.4398 19.0178H26.6341C26.5262 19.0178 26.4722 18.9639 26.4722 18.856V18.3082C26.4722 18.2003 26.5262 18.1463 26.6341 18.1463H28.5887V11.1743H26.9453C26.8374 11.1743 26.7835 11.1204 26.7835 11.0125V10.4647C26.7835 10.3568 26.8374 10.3028 26.9453 10.3028H29.3855C29.5017 10.3028 29.5598 10.3568 29.5598 10.4647V18.1463H31.4398Z" fill="#EEEEEE"/>
<rect y="27" width="348" height="69" rx="6.63933" fill="url(#paint1_radial_1129_687)"/>
<rect x="0.301788" y="27.3018" width="347.396" height="68.3964" rx="6.33755" stroke="url(#paint2_linear_1129_687)" stroke-opacity="0.21" stroke-width="0.603576"/>
<defs>
<radialGradient id="paint0_radial_1129_687" cx="0" cy="0" r="1" gradientTransform="matrix(91.653 49 -11.703 171.587 18.8833 -2.18974e-05)" gradientUnits="userSpaceOnUse">
<stop stop-color="#9E67E4"/>
<stop offset="1" stop-color="#6B22C4"/>
</radialGradient>
<radialGradient id="paint1_radial_1129_687" cx="0" cy="0" r="1" gradientTransform="matrix(55.9873 231.182 -538.751 45.0209 220.107 5.07476)" gradientUnits="userSpaceOnUse">
<stop stop-color="#2F2F2F"/>
<stop offset="1" stop-color="#1A1A1A"/>
</radialGradient>
<linearGradient id="paint2_linear_1129_687" x1="174" y1="27" x2="174" y2="96" gradientUnits="userSpaceOnUse">
<stop stop-color="white"/>
<stop offset="0.466346" stop-color="#999999"/>
<stop offset="1" stop-color="#DDDDDD"/>
</linearGradient>
</defs>
</svg>
