<svg width="502" height="471" viewBox="0 0 502 471" fill="none" xmlns="http://www.w3.org/2000/svg">
<path d="M241.539 195.773C293.191 195.773 325.504 239.996 325.691 281.515C325.78 301.459 319.79 322.421 304.888 336.906C289.962 351.415 267.189 358.456 241.539 358.456H88.9756C62.5 358.456 56.7154 382.386 56.5293 388.886C56.3053 396.709 59.0293 406.386 64.0293 411.886C70.3929 418.886 75.2895 423.316 95.0293 423.316H497.619C500.039 423.316 502 425.278 502 427.697V465.886C502 468.305 500.039 470.267 497.619 470.267H85.9427C57.4549 470.267 37.6315 462.208 22.3693 447.774C7.02369 433.261 -0.545744 413.379 0.0306002 393.249C1.21381 351.924 34.9181 309.506 85.9427 309.506L252.029 309.886C266.631 309.886 275.211 298.647 276.631 297.267C279.232 294.738 282.566 285.625 282.529 277.386C282.463 262.538 272.029 245.724 248.529 245.724H98.411H20.7624C18.3496 245.724 16.391 243.772 16.3817 241.36L15.4647 4.3979C15.4551 1.92795 17.4883 -0.0615804 19.9574 0.00155509L42.7337 0.583933L59.7828 1.14275C62.1451 1.22018 64.0201 3.15763 64.0201 5.52123V192.753C64.0201 195.186 66.0025 197.153 68.4354 197.134L241.539 195.773Z" fill="black" fill-opacity="0.2"/>
<path d="M241.539 195.773C293.191 195.773 325.504 239.996 325.691 281.515C325.78 301.459 319.79 322.421 304.888 336.906C289.962 351.415 267.189 358.456 241.539 358.456H88.9756C62.5 358.456 56.7154 382.386 56.5293 388.886C56.3053 396.709 59.0293 406.386 64.0293 411.886C70.3929 418.886 75.2895 423.316 95.0293 423.316H497.619C500.039 423.316 502 425.278 502 427.697V465.886C502 468.305 500.039 470.267 497.619 470.267H85.9427C57.4549 470.267 37.6315 462.208 22.3693 447.774C7.02369 433.261 -0.545744 413.379 0.0306002 393.249C1.21381 351.924 34.9181 309.506 85.9427 309.506L252.029 309.886C266.631 309.886 275.211 298.647 276.631 297.267C279.232 294.738 282.566 285.625 282.529 277.386C282.463 262.538 272.029 245.724 248.529 245.724H98.411H20.7624C18.3496 245.724 16.391 243.772 16.3817 241.36L15.4647 4.3979C15.4551 1.92795 17.4883 -0.0615804 19.9574 0.00155509L42.7337 0.583933L59.7828 1.14275C62.1451 1.22018 64.0201 3.15763 64.0201 5.52123V192.753C64.0201 195.186 66.0025 197.153 68.4354 197.134L241.539 195.773Z" fill="#0C0C0C"/>
<path d="M241.539 195.773C293.191 195.773 325.504 239.996 325.691 281.515C325.78 301.459 319.79 322.421 304.888 336.906C289.962 351.415 267.189 358.456 241.539 358.456H88.9756C62.5 358.456 56.7154 382.386 56.5293 388.886C56.3053 396.709 59.0293 406.386 64.0293 411.886C70.3929 418.886 75.2895 423.316 95.0293 423.316H497.619C500.039 423.316 502 425.278 502 427.697V465.886C502 468.305 500.039 470.267 497.619 470.267H85.9427C57.4549 470.267 37.6315 462.208 22.3693 447.774C7.02369 433.261 -0.545744 413.379 0.0306002 393.249C1.21381 351.924 34.9181 309.506 85.9427 309.506L252.029 309.886C266.631 309.886 275.211 298.647 276.631 297.267C279.232 294.738 282.566 285.625 282.529 277.386C282.463 262.538 272.029 245.724 248.529 245.724H98.411H20.7624C18.3496 245.724 16.391 243.772 16.3817 241.36L15.4647 4.3979C15.4551 1.92795 17.4883 -0.0615804 19.9574 0.00155509L42.7337 0.583933L59.7828 1.14275C62.1451 1.22018 64.0201 3.15763 64.0201 5.52123V192.753C64.0201 195.186 66.0025 197.153 68.4354 197.134L241.539 195.773Z" fill="url(#paint0_linear_1133_720)"/>
<defs>
<linearGradient id="paint0_linear_1133_720" x1="251" y1="-0.11377" x2="251" y2="470.267" gradientUnits="userSpaceOnUse">
<stop stop-color="#E77AF3"/>
<stop offset="1" stop-color="#DB3CE9"/>
</linearGradient>
</defs>
</svg>
