<svg width="348" height="96" viewBox="0 0 348 96" fill="none" xmlns="http://www.w3.org/2000/svg">
<path d="M172.378 0H120.639C116.973 0 114 2.97253 114 6.63933V42.3607C114 46.0275 116.973 49 120.639 49H180.361C184.027 49 187 46.0275 187 42.3607V23.4198C187 22.4331 186.78 21.4587 186.356 20.5676L178.373 3.7871C177.273 1.47379 174.939 0 172.378 0Z" fill="url(#paint0_radial_1129_689)"/>
<path d="M134.237 19.0801C133.556 19.0801 133.042 18.9058 132.693 18.5572C132.345 18.2003 132.17 17.6857 132.17 17.0134V12.3073C132.17 11.6267 132.345 11.1121 132.693 10.7635C133.042 10.4149 133.556 10.2406 134.237 10.2406H136.914C137.594 10.2406 138.109 10.4149 138.458 10.7635C138.806 11.1121 138.98 11.6267 138.98 12.3073V17.0134C138.98 17.6857 138.806 18.2003 138.458 18.5572C138.109 18.9058 137.594 19.0801 136.914 19.0801H134.237ZM136.839 18.2086C137.229 18.2086 137.524 18.109 137.723 17.9098C137.922 17.7023 138.022 17.4076 138.022 17.0258V12.2948C138.022 11.9047 137.922 11.6101 137.723 11.4109C137.524 11.2117 137.229 11.1121 136.839 11.1121H134.312C133.922 11.1121 133.627 11.2117 133.428 11.4109C133.229 11.6101 133.129 11.9047 133.129 12.2948V17.0258C133.129 17.4076 133.229 17.7023 133.428 17.9098C133.635 18.109 133.93 18.2086 134.312 18.2086H136.839ZM135.109 15.233C134.992 15.233 134.934 15.1791 134.934 15.0712V14.125C134.934 14.0171 134.992 13.9631 135.109 13.9631H136.055C136.163 13.9631 136.217 14.0171 136.217 14.125V15.0712C136.217 15.1791 136.163 15.233 136.055 15.233H135.109ZM142.907 19.0801C142.209 19.0801 141.699 18.9224 141.375 18.607C141.06 18.2833 140.902 17.7728 140.902 17.0756V16.5652C140.902 16.4573 140.956 16.4033 141.064 16.4033H141.699C141.815 16.4033 141.873 16.4573 141.873 16.5652V17.1005C141.873 17.4823 141.96 17.7645 142.135 17.9471C142.309 18.1214 142.587 18.2086 142.969 18.2086H144.986C145.368 18.2086 145.646 18.1214 145.82 17.9471C145.994 17.7645 146.081 17.4823 146.081 17.1005V15.8929C146.081 15.5111 145.994 15.233 145.82 15.0587C145.646 14.8761 145.368 14.7848 144.986 14.7848H142.421C142.313 14.7848 142.259 14.7309 142.259 14.623V14.0876C142.259 14.0212 142.267 13.9673 142.284 13.9258C142.301 13.8843 142.338 13.8428 142.396 13.8013L145.608 11.2241V11.1743H141.375C141.267 11.1743 141.213 11.1204 141.213 11.0125V10.4647C141.213 10.3568 141.267 10.3028 141.375 10.3028H146.791C146.899 10.3028 146.953 10.3568 146.953 10.4647V11C146.953 11.0664 146.94 11.1204 146.915 11.1619C146.899 11.2034 146.866 11.2449 146.816 11.2864L143.604 13.8511V13.9133H145.048C145.745 13.9133 146.251 14.0752 146.567 14.3989C146.891 14.7143 147.052 15.2206 147.052 15.9178V17.0756C147.052 17.7728 146.891 18.2833 146.567 18.607C146.251 18.9224 145.745 19.0801 145.048 19.0801H142.907Z" fill="#EEEEEE"/>
<rect y="27" width="348" height="69" rx="6.63933" fill="url(#paint1_radial_1129_689)"/>
<rect x="0.301788" y="27.3018" width="347.396" height="68.3964" rx="6.33755" stroke="url(#paint2_linear_1129_689)" stroke-opacity="0.21" stroke-width="0.603576"/>
<defs>
<radialGradient id="paint0_radial_1129_689" cx="0" cy="0" r="1" gradientTransform="matrix(91.653 49 -11.703 171.587 132.883 -4.36326e-06)" gradientUnits="userSpaceOnUse">
<stop stop-color="#7336F7"/>
<stop offset="1" stop-color="#190180"/>
</radialGradient>
<radialGradient id="paint1_radial_1129_689" cx="0" cy="0" r="1" gradientTransform="matrix(55.9873 231.182 -538.751 45.0209 220.107 5.07476)" gradientUnits="userSpaceOnUse">
<stop stop-color="#2F2F2F"/>
<stop offset="1" stop-color="#1A1A1A"/>
</radialGradient>
<linearGradient id="paint2_linear_1129_689" x1="174" y1="27" x2="174" y2="96" gradientUnits="userSpaceOnUse">
<stop stop-color="white"/>
<stop offset="0.466346" stop-color="#999999"/>
<stop offset="1" stop-color="#DDDDDD"/>
</linearGradient>
</defs>
</svg>
