<svg width="503" height="471" viewBox="0 0 503 471" fill="none" xmlns="http://www.w3.org/2000/svg">
<path d="M241.707 195.942C293.359 195.942 325.672 240.165 325.859 281.683C325.948 301.628 319.958 322.59 305.056 337.074C290.13 351.583 267.357 358.625 241.707 358.625H89.1436C62.668 358.625 56.8834 382.555 56.6973 389.055C56.4733 396.877 59.1973 406.555 64.1973 412.055C70.5609 419.055 75.4574 423.485 95.1973 423.485H497.787C500.207 423.485 502.168 425.446 502.168 427.866V466.054C502.168 468.474 500.207 470.435 497.787 470.435H86.1107C57.6228 470.435 37.7994 462.377 22.5372 447.942C7.19166 433.429 -0.377775 413.547 0.198569 393.417C1.38177 352.093 35.086 309.675 86.1107 309.675L252.197 310.055C266.799 310.055 275.379 298.815 276.799 297.435C279.4 294.906 282.734 285.794 282.697 277.555C282.631 262.707 272.197 245.892 248.697 245.892H98.5789H20.9304C18.5176 245.892 16.559 243.941 16.5496 241.528L15.6326 4.56636C15.6231 2.0964 17.6562 0.106877 20.1254 0.170012L42.9016 0.75239L59.9508 1.31121C62.3131 1.38864 64.1881 3.32609 64.1881 5.68968V192.922C64.1881 195.355 66.1705 197.322 68.6033 197.303L241.707 195.942Z" fill="black" fill-opacity="0.2"/>
<path d="M241.707 195.942C293.359 195.942 325.672 240.165 325.859 281.683C325.948 301.628 319.958 322.59 305.056 337.074C290.13 351.583 267.357 358.625 241.707 358.625H89.1436C62.668 358.625 56.8834 382.555 56.6973 389.055C56.4733 396.877 59.1973 406.555 64.1973 412.055C70.5609 419.055 75.4574 423.485 95.1973 423.485H497.787C500.207 423.485 502.168 425.446 502.168 427.866V466.054C502.168 468.474 500.207 470.435 497.787 470.435H86.1107C57.6228 470.435 37.7994 462.377 22.5372 447.942C7.19166 433.429 -0.377775 413.547 0.198569 393.417C1.38177 352.093 35.086 309.675 86.1107 309.675L252.197 310.055C266.799 310.055 275.379 298.815 276.799 297.435C279.4 294.906 282.734 285.794 282.697 277.555C282.631 262.707 272.197 245.892 248.697 245.892H98.5789H20.9304C18.5176 245.892 16.559 243.941 16.5496 241.528L15.6326 4.56636C15.6231 2.0964 17.6562 0.106877 20.1254 0.170012L42.9016 0.75239L59.9508 1.31121C62.3131 1.38864 64.1881 3.32609 64.1881 5.68968V192.922C64.1881 195.355 66.1705 197.322 68.6033 197.303L241.707 195.942Z" fill="#0C0C0C"/>
<path d="M241.707 195.942C293.359 195.942 325.672 240.165 325.859 281.683C325.948 301.628 319.958 322.59 305.056 337.074C290.13 351.583 267.357 358.625 241.707 358.625H89.1436C62.668 358.625 56.8834 382.555 56.6973 389.055C56.4733 396.877 59.1973 406.555 64.1973 412.055C70.5609 419.055 75.4574 423.485 95.1973 423.485H497.787C500.207 423.485 502.168 425.446 502.168 427.866V466.054C502.168 468.474 500.207 470.435 497.787 470.435H86.1107C57.6228 470.435 37.7994 462.377 22.5372 447.942C7.19166 433.429 -0.377775 413.547 0.198569 393.417C1.38177 352.093 35.086 309.675 86.1107 309.675L252.197 310.055C266.799 310.055 275.379 298.815 276.799 297.435C279.4 294.906 282.734 285.794 282.697 277.555C282.631 262.707 272.197 245.892 248.697 245.892H98.5789H20.9304C18.5176 245.892 16.559 243.941 16.5496 241.528L15.6326 4.56636C15.6231 2.0964 17.6562 0.106877 20.1254 0.170012L42.9016 0.75239L59.9508 1.31121C62.3131 1.38864 64.1881 3.32609 64.1881 5.68968V192.922C64.1881 195.355 66.1705 197.322 68.6033 197.303L241.707 195.942Z" stroke="#D9D9D9" stroke-width="0.336987"/>
</svg>
