<svg width="348" height="96" viewBox="0 0 348 96" fill="none" xmlns="http://www.w3.org/2000/svg">
<path d="M104.8 0H63.6393C59.9725 0 57 2.97253 57 6.63933V42.3607C57 46.0275 59.9725 49 63.6393 49H123.361C127.027 49 130 46.0275 130 42.3607V24.722C130 22.9311 129.277 21.2162 127.994 19.9665L109.434 1.88383C108.194 0.675958 106.531 0 104.8 0Z" fill="url(#paint0_radial_1129_688)"/>
<path d="M77.237 19.0801C76.5564 19.0801 76.0418 18.9058 75.6932 18.5572C75.3446 18.2003 75.1703 17.6857 75.1703 17.0134V12.3073C75.1703 11.6267 75.3446 11.1121 75.6932 10.7635C76.0418 10.4149 76.5564 10.2406 77.237 10.2406H79.9138C80.5944 10.2406 81.109 10.4149 81.4576 10.7635C81.8062 11.1121 81.9805 11.6267 81.9805 12.3073V17.0134C81.9805 17.6857 81.8062 18.2003 81.4576 18.5572C81.109 18.9058 80.5944 19.0801 79.9138 19.0801H77.237ZM79.8391 18.2086C80.2292 18.2086 80.5238 18.109 80.723 17.9098C80.9222 17.7023 81.0218 17.4076 81.0218 17.0258V12.2948C81.0218 11.9047 80.9222 11.6101 80.723 11.4109C80.5238 11.2117 80.2292 11.1121 79.8391 11.1121H77.3117C76.9216 11.1121 76.627 11.2117 76.4278 11.4109C76.2286 11.6101 76.129 11.9047 76.129 12.2948V17.0258C76.129 17.4076 76.2286 17.7023 76.4278 17.9098C76.6353 18.109 76.9299 18.2086 77.3117 18.2086H79.8391ZM78.1085 15.233C77.9923 15.233 77.9342 15.1791 77.9342 15.0712V14.125C77.9342 14.0171 77.9923 13.9631 78.1085 13.9631H79.0547C79.1626 13.9631 79.2166 14.0171 79.2166 14.125V15.0712C79.2166 15.1791 79.1626 15.233 79.0547 15.233H78.1085ZM84.2756 19.0178C84.1594 19.0178 84.1013 18.9639 84.1013 18.856V16.5403C84.1013 15.8431 84.259 15.3368 84.5744 15.0214C84.8981 14.6977 85.4127 14.5358 86.1182 14.5358H88.2596C88.6414 14.5358 88.9195 14.4487 89.0938 14.2744C89.2764 14.0918 89.3677 13.8096 89.3677 13.4278V12.2201C89.3677 11.8383 89.2764 11.5603 89.0938 11.386C88.9195 11.2034 88.6414 11.1121 88.2596 11.1121H86.305C85.9232 11.1121 85.641 11.1992 85.4584 11.3735C85.2841 11.5478 85.1969 11.83 85.1969 12.2201V12.7555C85.1969 12.8634 85.143 12.9173 85.0351 12.9173H84.4001C84.2839 12.9173 84.2258 12.8634 84.2258 12.7555V12.245C84.2258 11.5478 84.3835 11.0415 84.6989 10.7261C85.0226 10.4024 85.5372 10.2406 86.2427 10.2406H88.3219C89.0274 10.2406 89.5378 10.4024 89.8532 10.7261C90.1686 11.0415 90.3263 11.5478 90.3263 12.245V13.4029C90.3263 14.1001 90.1686 14.6105 89.8532 14.9342C89.5378 15.2496 89.0274 15.4073 88.3219 15.4073H86.1805C85.7987 15.4073 85.5165 15.4945 85.3339 15.6688C85.1596 15.8431 85.0724 16.1253 85.0724 16.5154V18.1463H90.289C90.3969 18.1463 90.4508 18.2003 90.4508 18.3082V18.856C90.4508 18.9639 90.3969 19.0178 90.289 19.0178H84.2756Z" fill="#EEEEEE"/>
<rect y="27" width="348" height="69" rx="6.63933" fill="url(#paint1_radial_1129_688)"/>
<rect x="0.301788" y="27.3018" width="347.396" height="68.3964" rx="6.33755" stroke="url(#paint2_linear_1129_688)" stroke-opacity="0.21" stroke-width="0.603576"/>
<defs>
<radialGradient id="paint0_radial_1129_688" cx="0" cy="0" r="1" gradientTransform="matrix(99.1768 166.11 -21.0089 354.498 75.3422 9.97977e-07)" gradientUnits="userSpaceOnUse">
<stop stop-color="#FF73DC"/>
<stop offset="1" stop-color="#FF4AD2"/>
</radialGradient>
<radialGradient id="paint1_radial_1129_688" cx="0" cy="0" r="1" gradientTransform="matrix(55.9873 231.182 -538.751 45.0209 220.107 5.07476)" gradientUnits="userSpaceOnUse">
<stop stop-color="#2F2F2F"/>
<stop offset="1" stop-color="#1A1A1A"/>
</radialGradient>
<linearGradient id="paint2_linear_1129_688" x1="174" y1="27" x2="174" y2="96" gradientUnits="userSpaceOnUse">
<stop stop-color="white"/>
<stop offset="0.466346" stop-color="#999999"/>
<stop offset="1" stop-color="#DDDDDD"/>
</linearGradient>
</defs>
</svg>
