<svg width="378" height="74" viewBox="0 0 378 74" fill="none" xmlns="http://www.w3.org/2000/svg">
<path d="M0 2.57714V71.4229C0 72.8462 1.15383 74 2.57714 74H24.7979C25.6267 74 26.4049 73.6014 26.8893 72.9289L31.0244 67.1866C31.5087 66.5141 32.2869 66.1155 33.1157 66.1155H341.244C341.879 66.1155 342.491 66.3496 342.964 66.7731L350.296 73.3423C350.769 73.7658 351.381 74 352.016 74H375.423C376.846 74 378 72.8462 378 71.4229V2.57714C378 1.15383 376.846 0 375.423 0H2.57714C1.15383 0 0 1.15382 0 2.57714Z" fill="#E0E0E0"/>
</svg>
