<svg width="77" height="77" viewBox="0 0 77 77" fill="none" xmlns="http://www.w3.org/2000/svg">
<rect x="0.4375" y="0.4375" width="76.125" height="76.125" rx="9.1875" fill="#D9D9D9" fill-opacity="0.07" stroke="url(#paint0_linear_648_55)" stroke-width="0.875"/>
<path d="M24.5 10C29.7862 10 34.3619 13.0386 36.5776 17.4643C37.0377 18.3833 37.9722 19 39 19C50.598 19 60 28.402 60 40C60 51.598 50.598 61 39 61C34.27 61 29.9059 59.4353 26.3953 56.7965C26.234 56.6752 26 56.7982 26 57C26 61.4183 22.4183 65 18 65C13.5817 65 10 61.4183 10 57C10 52.5817 13.5817 49 18 49C18.8462 49 19.593 48.0782 19.2993 47.2846C18.4594 45.0153 18 42.5614 18 40C18 37.378 16.7217 34.8394 14.8816 32.9715C12.4813 30.5348 11 27.1907 11 23.5C11 16.0442 17.0442 10 24.5 10Z" fill="#D9D9D9"/>
<circle cx="39.5" cy="41.5" r="14.5" fill="#343434"/>
<circle cx="35" cy="45" r="5" fill="#D9D9D9"/>
<circle cx="64" cy="18" r="4" fill="#D9D9D9"/>
<path d="M60.7196 16.2309L30.9043 44.1531C30.4391 44.5887 30.4947 45.3425 31.0186 45.7052L35.8258 49.0332C36.2178 49.3046 36.7469 49.2615 37.0898 48.9302L65.3378 21.6398C65.712 21.2782 65.7464 20.6901 65.4169 20.2873L62.1771 16.3275C61.8107 15.8797 61.1419 15.8354 60.7196 16.2309Z" stroke="#D9D9D9" stroke-linecap="round"/>
<circle cx="24" cy="23" r="7" fill="#343434"/>
<circle cx="17.5" cy="57.5" r="5.5" fill="#343434"/>
<defs>
<linearGradient id="paint0_linear_648_55" x1="-6.5625" y1="-8.33502e-07" x2="95.375" y2="77" gradientUnits="userSpaceOnUse">
<stop stop-color="#8D50DB"/>
<stop offset="0.5" stop-color="#CBA3FF"/>
<stop offset="1" stop-color="#8D50DB"/>
</linearGradient>
</defs>
</svg>
