<svg width="77" height="77" viewBox="0 0 77 77" fill="none" xmlns="http://www.w3.org/2000/svg">
<rect x="0.4375" y="0.4375" width="76.125" height="76.125" rx="9.1875" fill="#D9D9D9" fill-opacity="0.07" stroke="url(#paint0_linear_648_55)" stroke-width="0.875"/>
<circle cx="35" cy="45" r="5" fill="#D9D9D9"/>
<circle cx="64" cy="18" r="4" fill="#D9D9D9"/>
<path d="M60.7215 16.1891L31.7957 41.7956C31.3643 42.1775 31.344 42.844 31.7515 43.2515L36.7991 48.2991C37.1872 48.6872 37.8155 48.69 38.207 48.3054L65.3487 21.6399C65.7176 21.2775 65.7493 20.6936 65.4218 20.2933L62.1583 16.3046C61.799 15.8654 61.1465 15.8129 60.7215 16.1891Z" stroke="#D9D9D9" stroke-linecap="round"/>
<path d="M24.5 10C29.786 10 34.3613 13.0385 36.5771 17.4639C37.0373 18.3829 37.9722 19 39 19C50.598 19 60 28.402 60 40C60 51.598 50.598 61 39 61C34.2701 61 29.9061 59.4356 26.3955 56.7969C26.2342 56.6756 26 56.7982 26 57C26 61.4183 22.4183 65 18 65C13.5817 65 10 61.4183 10 57C10 52.5817 13.5817 49 18 49C18.8462 49 19.5925 48.0777 19.2988 47.2842C18.4591 45.015 18 42.5612 18 40C18 37.3781 16.7218 34.8396 14.8818 32.9717C12.4815 30.5351 11 27.1907 11 23.5C11 16.0442 17.0442 10 24.5 10ZM17.5 52C14.4624 52 12 54.4624 12 57.5C12 60.5376 14.4624 63 17.5 63C20.5376 63 23 60.5376 23 57.5C23 54.4624 20.5376 52 17.5 52ZM39.5 27C31.4919 27 25 33.4919 25 41.5C25 49.5081 31.4919 56 39.5 56C47.5081 56 54 49.5081 54 41.5C54 33.4919 47.5081 27 39.5 27ZM24 16C20.134 16 17 19.134 17 23C17 26.866 20.134 30 24 30C27.866 30 31 26.866 31 23C31 19.134 27.866 16 24 16Z" fill="#D9D9D9"/>
<defs>
<linearGradient id="paint0_linear_648_55" x1="-6.5625" y1="-8.33502e-07" x2="95.375" y2="77" gradientUnits="userSpaceOnUse">
<stop stop-color="#8D50DB"/>
<stop offset="0.5" stop-color="#CBA3FF"/>
<stop offset="1" stop-color="#8D50DB"/>
</linearGradient>
</defs>
</svg>
