<svg width="77" height="77" viewBox="0 0 77 77" fill="none" xmlns="http://www.w3.org/2000/svg">
<rect x="0.4375" y="0.4375" width="76.125" height="76.125" rx="9.1875" fill="#D9D9D9" fill-opacity="0.07" stroke="url(#paint0_linear_648_67)" stroke-width="0.875"/>
<path d="M59.5 13C65.8513 13 71 18.1487 71 24.5C71 30.8513 65.8513 36 59.5 36C59.3091 36 59.1193 35.9953 58.9308 35.9859C57.5926 35.9198 56.2334 36.4534 55.5635 37.6138L42.5479 60.1592C41.0082 62.8257 37.1587 62.8257 35.6191 60.1592L33.6419 56.7347C32.1811 54.2047 26.843 54.8093 24.5333 56.5982C22.5894 58.1039 20.1496 59 17.5 59C11.1487 59 6 53.8513 6 47.5C6 41.1487 11.1487 36 17.5 36C19.0308 36 20.5755 34.1024 19.8102 32.7766L16.502 27.0459C14.9624 24.3792 16.8866 21.0459 19.9658 21.0459H46.327C47.6371 21.0459 48.7616 20.1737 49.3865 19.0222C51.3332 15.4353 55.132 13 59.5 13Z" fill="#D9D9D9"/>
<circle cx="17" cy="48" r="7" fill="#353535"/>
<circle cx="60.5" cy="24.5" r="7.5" fill="#353535"/>
<path d="M50.6996 38.2343L39.8672 56.9978C39.4821 57.665 38.5189 57.6644 38.1345 56.9968L20.863 26.999C20.4792 26.3323 20.9604 25.5 21.7297 25.5H43.6972C44.6866 25.5 45.5891 27.3227 45.337 28.2794C44.5835 31.1381 45.301 35.1905 50.0253 36.6651C50.6871 36.8717 51.0462 37.6339 50.6996 38.2343Z" stroke="#353535" stroke-width="3"/>
<defs>
<linearGradient id="paint0_linear_648_67" x1="-6.5625" y1="-8.33502e-07" x2="95.375" y2="77" gradientUnits="userSpaceOnUse">
<stop stop-color="#8D50DB"/>
<stop offset="0.5" stop-color="#CBA3FF"/>
<stop offset="1" stop-color="#8D50DB"/>
</linearGradient>
</defs>
</svg>
