<svg width="77" height="77" viewBox="0 0 77 77" fill="none" xmlns="http://www.w3.org/2000/svg">
<rect x="0.4375" y="0.4375" width="76.125" height="76.125" rx="9.1875" fill="#D9D9D9" fill-opacity="0.07" stroke="url(#paint0_linear_648_67)" stroke-width="0.875"/>
<path d="M59.5 13C65.8513 13 71 18.1487 71 24.5C71 30.8513 65.8513 36 59.5 36C59.3091 36 59.1192 35.9957 58.9307 35.9863C57.5925 35.9202 56.2333 36.4539 55.5635 37.6143L42.5479 60.1592C41.0082 62.8257 37.1587 62.8257 35.6191 60.1592L33.6416 56.7344C32.1805 54.2048 26.8428 54.8098 24.5332 56.5986C22.5893 58.1042 20.1495 59 17.5 59C11.1487 59 6 53.8513 6 47.5C6 41.1487 11.1487 36 17.5 36C19.0308 36 20.5759 34.1022 19.8105 32.7764L16.502 27.0459C14.9624 24.3792 16.8866 21.0459 19.9658 21.0459H46.3271C47.6372 21.0458 48.7618 20.1738 49.3867 19.0225C51.3334 15.4356 55.132 13 59.5 13ZM21.7295 24C19.8065 24.0001 18.604 26.0805 19.5635 27.7471L36.835 57.7451C37.7959 59.414 40.203 59.4156 41.166 57.748L51.999 38.9844C52.8965 37.4297 51.9121 35.683 50.4727 35.2334C48.5028 34.6186 47.4953 33.5262 47.0029 32.3936C46.4878 31.2082 46.478 29.8352 46.7871 28.6621C47.0532 27.6526 46.7024 26.5417 46.2959 25.8057C46.0724 25.4011 45.7673 24.986 45.375 24.6543C44.9888 24.3278 44.4153 24 43.6973 24H21.7295ZM43.4883 27C43.537 27.0539 43.6039 27.1364 43.6699 27.2559C43.7614 27.4215 43.8263 27.6004 43.8584 27.752C43.8817 27.8621 43.8797 27.9174 43.8799 27.9248L43.8086 28.2178C43.4427 29.8423 43.4672 31.7852 44.251 33.5889C45.0628 35.4567 46.6381 37.0509 49.1328 37.9463L39.002 55.4961L22.5947 27H43.4883ZM17 41C13.134 41 10 44.134 10 48C10 51.866 13.134 55 17 55C20.866 55 24 51.866 24 48C24 44.134 20.866 41 17 41ZM60.5 17C56.3579 17 53 20.3579 53 24.5C53 28.6421 56.3579 32 60.5 32C64.6421 32 68 28.6421 68 24.5C68 20.3579 64.6421 17 60.5 17Z" fill="#D9D9D9"/>
<defs>
<linearGradient id="paint0_linear_648_67" x1="-6.5625" y1="-8.33502e-07" x2="95.375" y2="77" gradientUnits="userSpaceOnUse">
<stop stop-color="#8D50DB"/>
<stop offset="0.5" stop-color="#CBA3FF"/>
<stop offset="1" stop-color="#8D50DB"/>
</linearGradient>
</defs>
</svg>
