<svg width="77" height="77" viewBox="0 0 77 77" fill="none" xmlns="http://www.w3.org/2000/svg">
<rect x="0.4375" y="0.4375" width="76.125" height="76.125" rx="9.1875" fill="#D9D9D9" fill-opacity="0.07" stroke="url(#paint0_linear_679_13)" stroke-width="0.875"/>
<path d="M29.0145 7.85641C30.6662 6.2424 33.4454 7.02133 34.0174 9.25875C34.5705 11.4237 37.4614 12.1747 39.4841 11.2252C41.1585 10.4392 43.0278 9.99996 44.9998 9.99996C48.4735 10 51.6284 11.3628 53.9601 13.5826C55.1117 14.679 56.9814 14.9067 58.119 13.7959C59.7707 12.1822 62.55 12.9619 63.1219 15.1992L68.0555 34.497C68.7236 37.1111 65.4979 41.4563 65.5359 44.1542C65.5373 44.2494 65.5379 44.3448 65.5379 44.4404C65.5379 55.4861 56.5836 64.4404 45.5379 64.4404C43.0047 64.4404 39.4313 67.4493 36.9073 67.2326C36.72 67.2166 36.53 67.1825 36.3387 67.1289L17.16 61.7519C14.9364 61.1286 14.2213 58.3318 15.8729 56.7177C16.9527 55.6619 16.6721 53.8451 15.5271 52.8604C12.7552 50.4762 10.9999 46.943 10.9998 43C10.9998 40.6437 11.6271 38.4343 12.7235 36.529C13.7348 34.7717 13.1436 32.1116 11.1912 31.5644C8.96784 30.9408 8.25351 28.1442 9.90512 26.5302L29.0145 7.85641ZM21.5727 34.4742C20.3827 34.1407 19.08 34.2058 18.0841 34.9376C15.6074 36.7576 13.9998 39.6907 13.9998 43C13.9999 45.7401 15.1024 48.2215 16.8877 50.0268C18.6866 51.8457 21.5482 51.1699 23.378 49.3819L23.8062 48.9634C25.0067 47.7904 25.5379 46.1189 25.5379 44.4404C25.5379 43.5617 25.5947 42.6963 25.7046 41.8475C26.1096 38.7205 24.6089 35.3253 21.5727 34.4742ZM44.9998 13C42.0006 13 39.3106 14.3209 37.478 16.4122C36.598 17.4166 36.4628 18.8293 36.7936 20.123C37.5662 23.1445 40.8399 24.747 43.949 24.5026C44.4732 24.4614 45.0031 24.4404 45.5379 24.4404C46.569 24.4404 47.5823 24.0922 48.3196 23.3715L49.5976 22.1225C52.0255 19.7495 52.6467 15.7212 49.6417 14.1416C48.2548 13.4126 46.6757 13 44.9998 13Z" fill="#D9D9D9"/>
<path d="M45.9061 29.3732C47.543 27.6753 50.4087 28.4432 50.9774 30.7321L55.9266 50.6529C56.4775 52.8706 54.4458 54.8655 52.2386 54.2741L33.0428 49.1306C30.8356 48.5392 30.0736 45.7957 31.6595 44.1506L45.9061 29.3732Z" fill="#353535"/>
<circle cx="38" cy="36" r="8" fill="#353535"/>
<circle cx="37.5" cy="35.5" r="4.5" fill="#D9D9D9"/>
<defs>
<linearGradient id="paint0_linear_679_13" x1="-6.5625" y1="-8.33502e-07" x2="95.375" y2="77" gradientUnits="userSpaceOnUse">
<stop stop-color="#8D50DB"/>
<stop offset="0.5" stop-color="#CBA3FF"/>
<stop offset="1" stop-color="#8D50DB"/>
</linearGradient>
</defs>
</svg>
