<svg width="77" height="77" viewBox="0 0 77 77" fill="none" xmlns="http://www.w3.org/2000/svg">
<rect x="0.4375" y="0.4375" width="76.125" height="76.125" rx="9.1875" fill="#D9D9D9" fill-opacity="0.07" stroke="url(#paint0_linear_679_13)" stroke-width="0.875"/>
<path d="M29.0149 7.85645C30.6666 6.24257 33.4459 7.02141 34.0178 9.25879C34.5711 11.4236 37.4619 12.1751 39.4846 11.2256C41.1589 10.4397 43.0283 10 45.0002 10C48.4738 10.0002 51.6285 11.3633 53.9602 13.583C55.1118 14.6792 56.9819 14.9067 58.1194 13.7959C59.7711 12.1823 62.5504 12.9619 63.1223 15.1992L68.0559 34.4971C68.7238 37.1112 65.4984 41.4565 65.5364 44.1543C65.5377 44.2495 65.5383 44.3449 65.5383 44.4404C65.5383 55.486 56.5838 64.4402 45.5383 64.4404C43.0051 64.4404 39.4314 67.4491 36.9075 67.2324C36.7203 67.2164 36.5302 67.1825 36.3391 67.1289L17.1604 61.752C14.9368 61.1286 14.2217 58.3319 15.8733 56.7178C16.9529 55.662 16.6723 53.8451 15.5276 52.8604C12.7556 50.4762 11.0003 46.943 11.0002 43C11.0002 40.6438 11.6275 38.4346 12.7239 36.5293C13.7351 34.7721 13.1437 32.1118 11.1917 31.5645C8.96825 30.9409 8.25391 28.1443 9.90552 26.5303L29.0149 7.85645ZM38.0002 28C33.582 28 30.0002 31.5817 30.0002 36C30.0003 38.6552 31.295 41.0068 33.2864 42.4619L31.6594 44.1504C30.0735 45.7955 30.836 48.5394 33.0432 49.1309L52.2385 54.2744C54.4455 54.8656 56.4775 52.8707 55.927 50.6533L50.9778 30.7324C50.4092 28.4437 47.5434 27.6754 45.9065 29.373L44.2854 31.0537C42.8205 29.1949 40.5506 28 38.0002 28ZM21.5725 34.4746C20.3826 34.1411 19.0801 34.2057 18.0842 34.9375C15.6075 36.7575 14.0002 39.6908 14.0002 43C14.0003 45.74 15.1026 48.2211 16.8879 50.0264C18.6868 51.8453 21.5484 51.1698 23.3782 49.3818L23.8059 48.9629C25.0064 47.7899 25.5383 46.1189 25.5383 44.4404C25.5384 43.5618 25.5944 42.6963 25.7043 41.8477C26.1094 38.7206 24.6087 35.3257 21.5725 34.4746ZM45.0002 13C42.001 13 39.3103 14.3207 37.4778 16.4121C36.5979 17.4164 36.4624 18.8294 36.7932 20.123C37.5659 23.1446 40.8403 24.7473 43.9495 24.5029C44.4736 24.4617 45.0036 24.4404 45.5383 24.4404C46.5693 24.4404 47.5823 24.0917 48.3196 23.3711L49.5979 22.1221C52.0255 19.7491 52.6467 15.7212 49.6418 14.1416C48.2551 13.4127 46.676 13.0001 45.0002 13Z" fill="#D9D9D9"/>
<circle cx="37.5" cy="35.5" r="4.5" fill="#D9D9D9"/>
<defs>
<linearGradient id="paint0_linear_679_13" x1="-6.5625" y1="-8.33502e-07" x2="95.375" y2="77" gradientUnits="userSpaceOnUse">
<stop stop-color="#8D50DB"/>
<stop offset="0.5" stop-color="#CBA3FF"/>
<stop offset="1" stop-color="#8D50DB"/>
</linearGradient>
</defs>
</svg>
