<svg width="92" height="91" viewBox="0 0 92 91" fill="none" xmlns="http://www.w3.org/2000/svg">
<path d="M68.5409 33.7614C74.5346 43.0034 78.6189 52.2223 80.3839 59.6469C81.2668 63.3609 81.5642 66.6059 81.2439 69.1713C80.9233 71.7389 79.9921 73.5726 78.4696 74.5601C76.947 75.5476 74.8924 75.6503 72.4171 74.8957C69.9441 74.1418 67.1033 72.5462 64.0725 70.2254C58.0134 65.5856 51.2612 58.0969 45.2675 48.8549C39.2739 39.6131 35.1908 30.3943 33.4258 22.9698C32.543 19.2559 32.2448 16.0113 32.5651 13.4459C32.8857 10.878 33.8169 9.0432 35.3396 8.0557C36.8622 7.06842 38.9168 6.96688 41.3918 7.72143C43.8648 8.47537 46.7065 10.0704 49.7373 12.3913C55.7963 17.031 62.5474 24.5197 68.5409 33.7614Z" stroke="white" stroke-width="0.736539"/>
<path d="M52.7738 58.516C63.533 53.5475 72.4852 47.3813 78.2634 41.4411C81.1533 38.4701 83.2351 35.5698 84.3594 32.9186C85.4836 30.2675 85.6362 27.9039 84.7384 25.9594C83.8404 24.0148 81.9418 22.5976 79.1945 21.7342C76.4472 20.8708 72.8894 20.5748 68.7538 20.8482C60.4849 21.3947 49.9857 24.211 39.2266 29.1794C28.4675 34.1479 19.5152 40.3141 13.737 46.2543C10.8472 49.2252 8.76537 52.1256 7.64103 54.7768C6.51676 57.428 6.36444 59.7923 7.26242 61.7369C8.16046 63.6813 10.0587 65.0979 12.8059 65.9612C15.5532 66.8245 19.111 67.1206 23.2466 66.8472C31.5155 66.3006 42.0147 63.4844 52.7738 58.516Z" stroke="white" stroke-width="0.736539"/>
<path d="M52.2675 41.8969C58.2612 51.1389 62.3455 60.3578 64.1105 67.7824C64.9934 71.4964 65.2908 74.7414 64.9704 77.3068C64.6499 79.8744 63.7186 81.7081 62.1962 82.6956C60.6735 83.6831 58.6189 83.7858 56.1437 83.0312C53.6707 82.2773 50.8299 80.6817 47.799 78.3609C41.7399 73.7211 34.9877 66.2324 28.9941 56.9904C23.0005 47.7486 18.9174 38.5298 17.1524 31.1053C16.2695 27.3914 15.9714 24.1468 16.2916 21.5813C16.6122 19.0135 17.5435 17.1787 19.0662 16.1912C20.5888 15.2039 22.6433 15.1024 25.1184 15.8569C27.5914 16.6109 30.433 18.2059 33.4639 20.5268C39.5228 25.1665 46.2739 32.6552 52.2675 41.8969Z" stroke="white" stroke-width="0.736539"/>
<path d="M19.1216 16.2713L35.3933 8.1355" stroke="white" stroke-width="0.736539"/>
<path d="M61.8325 82.7142L78.1042 74.5784" stroke="white" stroke-width="0.736539"/>
</svg>
