<svg width="92" height="67" viewBox="0 0 92 67" fill="none" xmlns="http://www.w3.org/2000/svg">
<path d="M52.7736 47.7135C63.5327 42.745 72.485 36.5788 78.2631 30.6386C81.1531 27.6676 83.2348 24.7673 84.3591 22.1161C85.4833 19.4651 85.6359 17.1014 84.7381 15.1569C83.8402 13.2123 81.9415 11.7951 79.1943 10.9317C76.447 10.0683 72.8892 9.77231 68.7535 10.0457C60.4847 10.5922 49.9855 13.4085 39.2263 18.3769C28.4672 23.3454 19.515 29.5116 13.7368 35.4518C10.8469 38.4227 8.76512 41.3231 7.64078 43.9743C6.51651 46.6255 6.36419 48.9898 7.26217 50.9344C8.16022 52.8788 10.0585 54.2954 12.8056 55.1587C15.5529 56.022 19.1107 56.3181 23.2464 56.0447C31.5152 55.4981 42.0144 52.6819 52.7736 47.7135Z" stroke="white" stroke-width="0.736539"/>
</svg>
