<svg width="1645" height="930" viewBox="0 0 1645 930" fill="none" xmlns="http://www.w3.org/2000/svg">
<path d="M1330.64 455.64C1330.08 351.502 1244.64 263.155 1134.65 263.155L152.681 266.609C145.484 266.634 139.636 260.806 139.636 253.609V16.1631C139.636 9.14559 134.066 3.39467 127.052 3.16978L43.9955 0.506751C36.6168 0.270171 30.5223 6.21816 30.5792 13.6004L33.1984 352.967C33.2535 360.108 39.0574 365.867 46.198 365.867H276.668H1118.65C1207.64 365.867 1229.44 418.398 1229.64 455.64C1229.75 476.305 1221.45 504.387 1201.14 521.073C1187.64 532.165 1170.14 545.914 1119.65 545.914H239.669C88.2542 545.914 4.93137 608.752 0.635625 735.573C-1.79231 807.252 28.5981 851.671 74.1357 888.073C119.426 924.278 155.132 929.073 239.669 929.073H1644.64C1651.82 929.073 1657.64 923.253 1657.64 916.073V839.36C1657.64 832.18 1651.82 826.36 1644.64 826.36H248.669C187.136 826.36 163.136 826.073 143.636 813.573C116.962 796.475 101.653 764.573 102.636 735.573C103.386 713.422 116.348 679.092 150.136 661.073C172.129 649.344 199.136 648.627 248.669 648.627H1134.65C1184.64 648.627 1224.34 635.965 1268.64 599.573C1312.86 563.242 1330.9 505.665 1330.64 455.64Z" fill="black" fill-opacity="0.2"/>
<path d="M1330.64 455.64C1330.08 351.502 1244.64 263.155 1134.65 263.155L152.681 266.609C145.484 266.634 139.636 260.806 139.636 253.609V16.1631C139.636 9.14559 134.066 3.39467 127.052 3.16978L43.9955 0.506751C36.6168 0.270171 30.5223 6.21816 30.5792 13.6004L33.1984 352.967C33.2535 360.108 39.0574 365.867 46.198 365.867H276.668H1118.65C1207.64 365.867 1229.44 418.398 1229.64 455.64C1229.75 476.305 1221.45 504.387 1201.14 521.073C1187.64 532.165 1170.14 545.914 1119.65 545.914H239.669C88.2542 545.914 4.93137 608.752 0.635625 735.573C-1.79231 807.252 28.5981 851.671 74.1357 888.073C119.426 924.278 155.132 929.073 239.669 929.073H1644.64C1651.82 929.073 1657.64 923.253 1657.64 916.073V839.36C1657.64 832.18 1651.82 826.36 1644.64 826.36H248.669C187.136 826.36 163.136 826.073 143.636 813.573C116.962 796.475 101.653 764.573 102.636 735.573C103.386 713.422 116.348 679.092 150.136 661.073C172.129 649.344 199.136 648.627 248.669 648.627H1134.65C1184.64 648.627 1224.34 635.965 1268.64 599.573C1312.86 563.242 1330.9 505.665 1330.64 455.64Z" fill="#0C0C0C" fill-opacity="0.73"/>
<path d="M1330.64 455.64C1330.08 351.502 1244.64 263.155 1134.65 263.155L152.681 266.609C145.484 266.634 139.636 260.806 139.636 253.609V16.1631C139.636 9.14559 134.066 3.39467 127.052 3.16978L43.9955 0.506751C36.6168 0.270171 30.5223 6.21816 30.5792 13.6004L33.1984 352.967C33.2535 360.108 39.0574 365.867 46.198 365.867H276.668H1118.65C1207.64 365.867 1229.44 418.398 1229.64 455.64C1229.75 476.305 1221.45 504.387 1201.14 521.073C1187.64 532.165 1170.14 545.914 1119.65 545.914H239.669C88.2542 545.914 4.93137 608.752 0.635625 735.573C-1.79231 807.252 28.5981 851.671 74.1357 888.073C119.426 924.278 155.132 929.073 239.669 929.073H1644.64C1651.82 929.073 1657.64 923.253 1657.64 916.073V839.36C1657.64 832.18 1651.82 826.36 1644.64 826.36H248.669C187.136 826.36 163.136 826.073 143.636 813.573C116.962 796.475 101.653 764.573 102.636 735.573C103.386 713.422 116.348 679.092 150.136 661.073C172.129 649.344 199.136 648.627 248.669 648.627H1134.65C1184.64 648.627 1224.34 635.965 1268.64 599.573C1312.86 563.242 1330.9 505.665 1330.64 455.64Z" stroke="#D9D9D9"/>
<path d="M58.6357 92.0732L86.8147 72.4705C87.1579 72.2317 87.6135 72.2317 87.9568 72.4705L116.136 92.0732" stroke="#313131" stroke-width="1.7" stroke-linecap="round"/>
<path d="M230.636 345.073L211.033 316.894C210.794 316.551 210.794 316.095 211.033 315.752L230.636 287.573" stroke="#313131" stroke-width="1.7" stroke-linecap="round"/>
<path d="M1147.64 345.073L1128.03 316.894C1127.79 316.551 1127.79 316.095 1128.03 315.752L1147.64 287.573" stroke="#313131" stroke-width="1.7" stroke-linecap="round"/>
<path d="M1147.64 630.573L1128.03 602.394C1127.79 602.051 1127.79 601.595 1128.03 601.252L1147.64 573.073" stroke="#313131" stroke-width="1.7" stroke-linecap="round"/>
<path d="M221.636 630.573L241.238 602.394C241.477 602.051 241.477 601.595 241.238 601.252L221.636 573.073" stroke="#313131" stroke-width="1.7" stroke-linecap="round"/>
<path d="M241.636 911.573L222.033 883.394C221.794 883.051 221.794 882.595 222.033 882.252L241.636 854.073" stroke="#313131" stroke-width="1.7" stroke-linecap="round"/>
<path d="M1376.64 911.573L1357.03 883.394C1356.79 883.051 1356.79 882.595 1357.03 882.252L1376.64 854.073" stroke="#313131" stroke-width="1.7" stroke-linecap="round"/>
</svg>
