<svg width="1746" height="979" viewBox="0 0 1746 979" fill="none" xmlns="http://www.w3.org/2000/svg">
<path d="M1400.77 479.759C1400.19 370.091 1310.2 277.052 1194.38 277.052L159.57 280.692C152.372 280.717 146.524 274.889 146.524 267.692V16.2757C146.524 9.25821 140.955 3.50729 133.941 3.2824L45.0873 0.433509C37.7087 0.196929 31.6142 6.14491 31.6711 13.5271L34.4402 372.319C34.4953 379.459 40.2992 385.219 47.4398 385.219H290.834H1177.53C1271.24 385.219 1294.2 440.539 1294.41 479.759C1294.52 501.521 1285.78 531.094 1264.39 548.667C1250.18 560.348 1231.75 574.827 1178.58 574.827H251.869C92.4143 574.827 4.66682 641.002 0.142949 774.558C-2.41392 850.043 29.5903 896.821 77.5462 935.156C125.241 973.283 162.843 978.333 251.869 978.333H1732.14C1739.32 978.333 1745.14 972.513 1745.14 965.333V883.166C1745.14 875.986 1739.32 870.166 1732.14 870.166H261.348C196.547 870.166 171.272 869.864 150.737 856.7C122.646 838.693 106.525 805.098 107.56 774.558C108.35 751.23 122 715.077 157.582 696.102C180.744 683.75 209.184 682.994 261.348 682.994H1194.38C1247.02 682.994 1288.83 669.66 1335.48 631.336C1382.05 593.076 1401.05 532.441 1400.77 479.759Z" fill="black" fill-opacity="0.2"/>
<path d="M1400.77 479.759C1400.19 370.091 1310.2 277.052 1194.38 277.052L159.57 280.692C152.372 280.717 146.524 274.889 146.524 267.692V16.2757C146.524 9.25821 140.955 3.50729 133.941 3.2824L45.0873 0.433509C37.7087 0.196929 31.6142 6.14491 31.6711 13.5271L34.4402 372.319C34.4953 379.459 40.2992 385.219 47.4398 385.219H290.834H1177.53C1271.24 385.219 1294.2 440.539 1294.41 479.759C1294.52 501.521 1285.78 531.094 1264.39 548.667C1250.18 560.348 1231.75 574.827 1178.58 574.827H251.869C92.4143 574.827 4.66682 641.002 0.142949 774.558C-2.41392 850.043 29.5903 896.821 77.5462 935.156C125.241 973.283 162.843 978.333 251.869 978.333H1732.14C1739.32 978.333 1745.14 972.513 1745.14 965.333V883.166C1745.14 875.986 1739.32 870.166 1732.14 870.166H261.348C196.547 870.166 171.272 869.864 150.737 856.7C122.646 838.693 106.525 805.098 107.56 774.558C108.35 751.23 122 715.077 157.582 696.102C180.744 683.75 209.184 682.994 261.348 682.994H1194.38C1247.02 682.994 1288.83 669.66 1335.48 631.336C1382.05 593.076 1401.05 532.441 1400.77 479.759Z" fill="#0C0C0C"/>
<path d="M1400.77 479.759C1400.19 370.091 1310.2 277.052 1194.38 277.052L159.57 280.692C152.372 280.717 146.524 274.889 146.524 267.692V16.2757C146.524 9.25821 140.955 3.50729 133.941 3.2824L45.0873 0.433509C37.7087 0.196929 31.6142 6.14491 31.6711 13.5271L34.4402 372.319C34.4953 379.459 40.2992 385.219 47.4398 385.219H290.834H1177.53C1271.24 385.219 1294.2 440.539 1294.41 479.759C1294.52 501.521 1285.78 531.094 1264.39 548.667C1250.18 560.348 1231.75 574.827 1178.58 574.827H251.869C92.4143 574.827 4.66682 641.002 0.142949 774.558C-2.41392 850.043 29.5903 896.821 77.5462 935.156C125.241 973.283 162.843 978.333 251.869 978.333H1732.14C1739.32 978.333 1745.14 972.513 1745.14 965.333V883.166C1745.14 875.986 1739.32 870.166 1732.14 870.166H261.348C196.547 870.166 171.272 869.864 150.737 856.7C122.646 838.693 106.525 805.098 107.56 774.558C108.35 751.23 122 715.077 157.582 696.102C180.744 683.75 209.184 682.994 261.348 682.994H1194.38C1247.02 682.994 1288.83 669.66 1335.48 631.336C1382.05 593.076 1401.05 532.441 1400.77 479.759Z" fill="url(#paint0_linear_1060_31)"/>
<defs>
<linearGradient id="paint0_linear_1060_31" x1="872.568" y1="0" x2="872.568" y2="978.333" gradientUnits="userSpaceOnUse">
<stop stop-color="#E77AF3"/>
<stop offset="1" stop-color="#DB3CE9"/>
</linearGradient>
</defs>
</svg>
